<?xml version="1.0" standalone="no"?><!-- Generator: Gravit.io --><svg xmlns="http://www.w3.org/2000/svg" xmlns:xlink="http://www.w3.org/1999/xlink" style="isolation:isolate" viewBox="694.77 484.867 289.459 182.867" width="289.459" height="182.867"><defs><clipPath id="_clipPath_O8tQT2SqtMECXxPaInp1uqwj52ISf30N"><rect x="694.77" y="484.867" width="289.459" height="182.867"/></clipPath></defs><g clip-path="url(#_clipPath_O8tQT2SqtMECXxPaInp1uqwj52ISf30N)"><g style="isolation:isolate"><g><g><path d=" M 923.178 519.552 C 918.614 525.714 928.26 595.016 951.716 593.5 C 975.172 591.979 990.11 527.883 982.005 516.435 C 977.481 510.047 932.941 506.378 923.178 519.552 Z " fill="rgb(255,255,255)"/></g><g><path d=" M 921.491 519.203 C 921.491 519.203 921.643 519.023 921.937 518.673 C 922.085 518.495 922.269 518.279 922.486 518.018 C 922.733 517.789 923.019 517.521 923.342 517.219 C 924.658 516.042 926.858 514.61 929.915 513.425 C 936.03 511.055 945.39 509.586 956.555 509.938 C 959.347 510.045 962.25 510.294 965.233 510.731 C 968.214 511.154 971.285 511.727 974.373 512.63 C 975.911 513.097 977.473 513.61 978.955 514.438 C 979.325 514.625 979.695 514.886 980.059 515.177 C 980.258 515.315 980.401 515.466 980.533 515.619 L 980.742 515.846 C 980.789 515.903 980.783 515.883 980.875 516.001 L 980.957 516.143 L 981.606 517.285 L 982.061 518.498 C 983.106 521.791 983.223 525.282 983.199 528.771 C 983.025 535.763 982.001 542.951 980.113 550.023 C 978.15 557.073 975.902 564.165 972.871 570.969 C 971.347 574.362 969.626 577.679 967.585 580.791 C 965.549 583.901 963.223 586.851 960.391 589.274 C 959.661 589.851 958.979 590.487 958.17 590.961 L 957.002 591.727 C 956.603 591.966 956.17 592.151 955.755 592.365 C 955.327 592.558 954.938 592.81 954.478 592.951 L 953.113 593.391 C 952.653 593.565 952.206 593.649 951.767 593.703 L 950.441 593.914 C 946.549 594.23 942.945 592.55 940.295 590.175 C 937.603 587.802 935.658 584.878 933.986 581.966 C 933.545 581.247 933.149 580.51 932.778 579.766 C 932.403 579.026 932.005 578.299 931.671 577.55 C 931.321 576.807 930.973 576.07 930.627 575.339 C 930.313 574.591 929.999 573.851 929.689 573.115 C 927.258 567.201 925.587 561.386 924.229 555.987 C 922.923 550.573 921.955 545.553 921.381 541.063 C 920.781 536.578 920.467 532.641 920.35 529.391 C 920.238 526.141 920.353 523.573 920.641 521.831 C 920.747 520.977 920.998 520.242 921.161 519.839 C 921.366 519.441 921.473 519.234 921.473 519.234 L 921.491 519.203 Z  M 921.911 519.471 C 921.911 519.471 921.807 519.677 921.606 520.078 C 921.479 520.277 921.47 520.534 921.374 520.831 C 921.282 521.119 921.215 521.487 921.162 521.914 C 920.902 523.602 920.814 526.143 920.962 529.367 C 921.103 532.591 921.498 536.501 922.163 540.953 C 922.861 545.398 923.71 550.411 924.995 555.802 C 926.302 561.182 927.955 566.971 930.349 572.843 C 931.507 575.794 932.949 578.727 934.677 581.555 C 936.427 584.359 938.514 587.07 941.105 589.227 C 941.775 589.73 942.401 590.31 943.151 590.69 L 944.23 591.339 C 944.605 591.518 944.999 591.662 945.383 591.826 C 946.138 592.211 946.973 592.321 947.789 592.515 C 948.193 592.646 948.621 592.591 949.038 592.622 C 949.438 592.63 949.926 592.667 950.255 592.651 C 952.085 592.441 953.687 592.105 955.257 591.313 C 955.647 591.121 956.057 590.958 956.437 590.739 L 957.553 590.034 C 958.322 589.594 958.979 588.985 959.682 588.438 C 962.413 586.13 964.706 583.266 966.721 580.225 C 968.725 577.167 970.486 573.927 972.071 570.599 C 975.17 563.917 977.642 556.898 979.127 549.782 C 980.694 542.701 982.021 535.646 982.223 528.75 C 982.293 525.326 982.213 521.875 981.231 518.777 C 980.543 515.343 977.073 514.381 974.142 513.427 C 968.038 511.807 962.013 511.391 956.509 511.149 C 950.991 510.901 945.914 511.073 941.459 511.589 C 937.009 512.121 933.17 512.969 930.163 514.083 C 927.149 515.182 924.991 516.529 923.705 517.635 C 923.387 517.919 923.107 518.17 922.866 518.386 C 922.654 518.63 922.474 518.837 922.33 519.001 C 922.042 519.331 921.893 519.501 921.893 519.501 L 921.911 519.471 Z " fill="rgb(67,64,64)"/></g><g><path d=" M 959.598 503.294 C 957.233 502.086 952.502 509.784 952.502 509.784 C 952.461 509.854 952.437 509.925 952.405 509.992 C 952.104 509.568 951.616 509.278 951.053 509.316 L 949.624 509.398 C 948.938 509.437 948.401 509.917 948.226 510.537 C 948.178 510.45 948.137 510.362 948.081 510.264 C 948.081 510.264 942.645 503.049 940.404 504.474 C 938.162 505.906 939.13 514.56 940.897 515.084 C 942.662 515.609 947.814 512.974 947.814 512.974 C 948.006 512.808 948.15 512.656 948.272 512.513 C 948.405 513.289 949.078 513.865 949.884 513.818 L 951.316 513.737 C 952.114 513.688 952.714 513.042 952.758 512.261 C 952.842 512.333 952.929 512.401 953.026 512.456 C 953.026 512.456 958.405 514.594 960.114 513.901 C 961.824 513.21 961.965 504.505 959.598 503.294 Z " fill="rgb(67,64,64)"/></g><g><path d=" M 937.641 512.263 C 937.641 512.263 951.032 567.963 951.557 576.992 C 951.557 576.992 933.934 540.799 932.326 533.38 C 930.72 525.963 934.485 512.695 934.485 512.695" fill="rgb(67,64,64)"/></g><g><path d=" M 962.433 511.104 C 962.433 511.104 951.818 567.956 951.557 576.992 C 951.557 576.992 969.16 539.427 970.552 531.964 C 971.946 524.503 966.738 511.667 966.738 511.667" fill="rgb(67,64,64)"/></g><g><path d=" M 937.883 512.203 C 938.595 514.873 939.261 517.55 939.914 520.231 C 940.561 522.914 941.247 525.589 941.851 528.285 L 945.47 544.443 C 946.066 547.138 946.789 549.805 947.509 552.474 C 947.83 553.818 948.173 555.157 948.449 556.509 C 948.749 557.857 948.999 559.217 949.265 560.57 L 950.793 568.722 C 951.035 570.083 951.338 571.425 951.493 572.818 C 951.685 574.201 951.854 575.583 952.018 576.966 C 952.047 577.217 951.869 577.443 951.618 577.474 C 951.417 577.498 951.23 577.389 951.149 577.214 L 951.141 577.195 L 947.526 569.406 C 946.298 566.823 944.831 564.351 943.669 561.734 C 942.442 559.149 941.317 556.515 940.154 553.901 C 938.987 551.286 937.858 548.654 936.725 546.023 C 935.571 543.403 934.513 540.737 933.338 538.115 C 932.777 536.789 932.354 535.378 931.893 533.995 C 931.835 533.81 931.779 533.677 931.722 533.446 L 931.634 532.917 C 931.583 532.561 931.51 532.222 931.481 531.849 C 931.427 531.105 931.354 530.351 931.367 529.627 C 931.339 526.709 931.683 523.834 932.209 521.003 C 932.715 518.167 933.41 515.381 934.245 512.627 C 934.285 512.495 934.425 512.419 934.555 512.461 C 934.683 512.501 934.755 512.635 934.725 512.763 C 934.062 515.531 933.547 518.343 933.13 521.154 C 932.915 522.558 932.783 523.971 932.646 525.381 C 932.55 526.789 932.462 528.203 932.522 529.605 C 932.522 530.313 932.606 530.985 932.663 531.665 C 932.694 532.006 932.778 532.367 932.833 532.717 L 932.919 533.245 L 933.067 533.719 C 933.518 535.05 933.855 536.398 934.329 537.739 L 935.837 541.742 C 936.325 543.083 936.934 544.378 937.506 545.687 C 938.653 548.305 939.813 550.914 941.047 553.495 L 944.71 561.25 C 945.954 563.823 946.931 566.523 948.162 569.105 C 949.379 571.693 950.686 574.237 951.971 576.791 L 951.095 577.018 C 950.879 575.667 950.667 574.318 950.478 572.966 C 950.317 571.618 949.998 570.266 949.745 568.914 L 948.942 564.859 C 948.685 563.509 948.358 562.167 948.049 560.823 C 947.741 559.479 947.417 558.138 947.142 556.787 C 946.846 555.441 946.613 554.081 946.361 552.725 C 945.882 550.006 945.401 547.286 944.795 544.594 C 944.217 541.897 943.587 539.211 942.939 536.529 L 941.033 528.474 C 940.378 525.791 939.814 523.091 939.194 520.401 C 938.575 517.714 937.975 515.021 937.399 512.321 C 937.37 512.185 937.455 512.053 937.59 512.023 C 937.721 511.998 937.85 512.078 937.883 512.203 Z " fill="rgb(67,64,64)"/></g><g><path d=" M 962.678 511.149 C 962.236 513.899 961.77 516.641 961.284 519.381 C 960.797 522.122 960.365 524.873 959.844 527.605 L 958.33 535.815 C 957.814 538.55 957.314 541.289 956.864 544.034 C 956.382 546.774 956.03 549.537 955.68 552.299 C 955.332 555.063 954.897 557.807 954.381 560.542 C 953.848 563.277 953.465 566.026 953.046 568.774 C 952.85 570.149 952.597 571.523 952.484 572.894 C 952.345 574.263 952.192 575.635 952.022 577.006 L 951.134 576.794 C 952.402 574.182 953.692 571.575 954.893 568.927 C 956.118 566.291 957.065 563.531 958.289 560.897 L 961.892 552.958 C 963.085 550.31 964.252 547.649 965.374 544.971 C 965.921 543.625 966.52 542.302 967.013 540.938 C 967.542 539.586 968.025 538.219 968.477 536.843 C 968.72 536.159 968.937 535.471 969.137 534.785 C 969.349 534.097 969.588 533.414 969.733 532.734 C 969.808 532.406 969.924 532.031 969.966 531.739 L 970.116 530.659 C 970.174 529.946 970.21 529.289 970.193 528.573 C 970.178 527.157 970.012 525.733 969.798 524.315 C 969.564 522.899 969.301 521.482 968.96 520.078 C 968.282 517.277 967.48 514.485 966.508 511.761 C 966.458 511.633 966.522 511.487 966.65 511.438 C 966.774 511.391 966.916 511.455 966.97 511.573 C 968.114 514.266 969.094 517.021 969.865 519.846 C 970.257 521.258 970.6 522.687 970.856 524.138 C 971.102 525.589 971.304 527.055 971.349 528.547 C 971.384 529.282 971.353 530.083 971.304 530.815 L 971.174 531.899 C 971.108 532.323 970.993 532.643 970.904 533.021 C 970.532 534.485 970.012 535.843 969.468 537.203 L 966.161 545.297 C 963.924 550.673 961.698 556.047 959.338 561.365 C 958.178 564.034 956.73 566.57 955.534 569.222 L 951.98 577.19 L 951.973 577.203 C 951.869 577.438 951.596 577.542 951.362 577.438 C 951.18 577.357 951.076 577.17 951.09 576.979 C 951.2 575.581 951.322 574.182 951.461 572.785 C 951.566 571.378 951.805 570.01 951.988 568.627 L 953.148 560.346 C 953.528 557.586 953.988 554.839 954.536 552.107 C 955.128 549.383 955.72 546.662 956.182 543.917 L 959.016 527.455 C 959.489 524.714 960.041 521.985 960.556 519.247 C 961.077 516.513 961.609 513.782 962.188 511.058 C 962.216 510.922 962.348 510.837 962.484 510.865 C 962.614 510.894 962.698 511.018 962.678 511.149 Z " fill="rgb(67,64,64)"/></g><g><path d=" M 950.563 514.659 C 950.563 514.659 950.659 515.878 950.738 518.019 C 950.812 520.156 950.974 523.211 951 526.878 C 951.019 528.714 951.007 530.7 951.07 532.802 C 951.091 533.852 951.126 534.93 951.203 536.034 C 951.292 537.135 951.43 538.258 951.503 539.404 C 951.686 541.692 951.543 544.066 951.59 546.474 C 951.614 548.88 951.691 551.326 951.647 553.771 C 951.631 556.219 951.578 558.667 951.896 561.068 C 952.094 563.468 951.983 565.842 952.024 568.135 C 952.022 570.427 952.068 572.643 952.099 574.744 C 952.154 576.847 952.414 578.828 952.427 580.662 C 952.479 584.331 952.471 587.388 952.438 589.528 C 952.382 591.672 952.35 592.896 952.35 592.896 C 952.346 593.031 952.231 593.14 952.094 593.138 C 951.964 593.135 951.862 593.031 951.851 592.907 C 951.851 592.907 951.763 591.686 951.611 589.547 C 951.479 587.411 951.331 584.356 951.216 580.69 C 951.146 578.856 951.315 576.864 951.272 574.763 C 951.208 572.664 951.154 570.448 951.047 568.156 C 950.983 565.864 950.763 563.5 950.851 561.091 C 951.062 558.678 950.895 556.235 950.767 553.792 C 950.612 551.35 950.578 548.904 950.491 546.498 C 950.427 544.091 950.176 541.727 950.255 539.432 C 950.276 538.287 950.363 537.156 950.4 536.052 C 950.427 534.948 950.414 533.867 950.386 532.818 C 950.354 530.716 950.25 528.73 950.184 526.899 C 950.044 523.232 950.067 520.172 950.043 518.034 C 950.024 515.894 950.064 514.67 950.064 514.67 C 950.068 514.531 950.184 514.422 950.322 514.427 C 950.451 514.432 950.554 514.531 950.563 514.659 Z " fill="rgb(67,64,64)"/></g></g><g style="isolation:isolate"><g><path d=" M 733.48 567.802 C 733.48 567.802 724.644 558.112 714.642 566.778 C 704.641 575.45 720.433 588.789 720.433 588.789 C 720.433 588.789 689.152 646.409 698.424 658.344 C 707.692 670.278 726.834 656.12 721.778 649.229 C 716.721 642.33 709.17 668.226 732.032 667.726 C 754.896 667.226 753.174 645.54 749.09 646.018 C 745.004 646.493 752.108 666.774 768.833 657.602 C 785.56 648.428 776.486 634.584 771.254 636.472 C 766.022 638.368 788.968 657.685 796.733 640.985 C 804.501 624.276 754.172 579.881 754.172 579.881 C 754.172 579.881 757.297 555.592 748.597 555.154 C 735.424 554.496 733.48 567.802 733.48 567.802 Z " fill="rgb(255,255,255)"/></g><g><path d=" M 719.991 587.8 C 719.991 587.8 720.516 587.776 721.435 587.734 C 722.353 587.698 723.663 587.636 725.239 587.609 C 726.024 587.581 726.883 587.609 727.78 587.502 C 728.229 587.458 728.693 587.428 729.159 587.321 C 729.621 587.198 730.089 587.037 730.568 586.917 C 731.527 586.69 732.551 586.709 733.572 586.548 C 734.593 586.406 735.608 586.152 736.655 586.032 C 737.683 585.841 738.741 585.706 739.649 585.146 C 740.576 584.674 741.611 584.586 742.516 584.209 C 743.432 583.87 744.359 583.622 745.145 583.185 C 745.94 582.769 746.629 582.256 747.299 581.87 C 747.979 581.49 748.601 581.144 749.153 580.836 C 749.707 580.529 750.153 580.206 750.543 579.969 C 751.321 579.49 751.791 579.232 751.791 579.232 L 751.815 579.218 C 751.935 579.154 752.087 579.198 752.153 579.318 C 752.207 579.417 752.187 579.537 752.112 579.612 C 752.112 579.612 751.739 579.993 751.041 580.628 C 750.68 580.925 750.276 581.346 749.74 581.724 C 749.191 582.084 748.572 582.49 747.896 582.933 C 747.216 583.376 746.312 583.521 745.493 583.936 C 744.679 584.362 743.768 584.688 742.861 585.122 C 742.407 585.341 741.933 585.524 741.449 585.704 C 740.967 585.888 740.473 586.065 739.949 586.149 C 738.873 586.212 737.868 586.54 736.857 586.901 C 735.833 587.198 734.791 587.428 733.763 587.63 C 732.728 587.794 731.739 588.185 730.727 588.166 C 729.716 588.149 728.741 588.06 727.837 588.185 C 726.929 588.272 726.071 588.349 725.276 588.425 C 722.095 588.657 719.965 588.297 719.965 588.297 C 719.828 588.278 719.735 588.152 719.755 588.013 C 719.772 587.893 719.876 587.808 719.991 587.8 Z " fill="rgb(67,64,64)"/></g><g><path d=" M 737.59 582.373 C 737.026 582.375 734.438 586.263 735.422 586.881 C 736.411 587.506 740.627 582.351 737.59 582.373 Z " fill="rgb(67,64,64)"/></g><g><path d=" M 740.198 589.422 C 739.704 589.693 735.536 587.581 736.092 586.558 C 736.647 585.534 742.851 587.949 740.198 589.422 Z " fill="rgb(67,64,64)"/></g><g><path d=" M 746.551 579.925 C 746.167 580.026 745.128 583.151 745.912 583.383 C 746.695 583.622 748.609 579.351 746.551 579.925 Z " fill="rgb(67,64,64)"/></g><g><path d=" M 748.954 585.195 C 748.606 585.389 745.676 583.903 746.066 583.179 C 746.456 582.461 750.82 584.159 748.954 585.195 Z " fill="rgb(67,64,64)"/></g><g><path d=" M 727.264 584.466 C 726.794 584.458 724.572 587.654 725.382 588.188 C 726.192 588.718 729.79 584.505 727.264 584.466 Z " fill="rgb(67,64,64)"/></g><g><path d=" M 728.232 591.258 C 727.773 591.359 724.941 588.693 725.625 588.006 C 726.308 587.318 730.701 590.703 728.232 591.258 Z " fill="rgb(67,64,64)"/></g><path d=" M 731.762 566.401 C 732.146 564.502 732.809 562.69 733.758 561.008 C 734.269 560.104 734.856 559.232 735.55 558.453 C 736.222 557.652 737.009 556.942 737.857 556.328 C 738.301 556.049 738.709 555.706 739.185 555.482 L 740.606 554.794 C 741.608 554.477 742.597 554.112 743.666 554.01 C 744.73 553.781 745.734 553.854 746.76 553.816 C 747.88 553.805 749.014 554.204 749.857 554.937 C 750.706 555.661 751.29 556.601 751.737 557.56 C 752.192 558.524 752.497 559.532 752.737 560.544 C 753.228 562.576 753.433 564.638 753.56 566.696 C 753.764 570.82 753.584 574.925 753.133 579.026 L 752.957 578.557 C 758.377 583.396 763.637 588.39 768.68 593.614 C 773.698 598.854 778.568 604.25 783.06 609.964 C 785.3 612.822 787.452 615.758 789.432 618.81 C 791.424 621.852 793.274 625.013 794.65 628.414 C 795.302 630.125 795.929 631.868 796.185 633.71 C 796.39 634.62 796.362 635.565 796.401 636.497 C 796.386 636.972 796.29 637.456 796.233 637.934 C 796.193 638.169 796.18 638.422 796.116 638.644 L 795.897 639.286 C 795.305 641.084 794.322 642.69 793.028 644.073 C 791.738 645.448 790.041 646.477 788.196 646.928 C 784.465 647.849 780.636 646.828 777.344 645.245 C 775.681 644.432 774.113 643.442 772.658 642.297 C 771.217 641.138 769.829 639.885 768.848 638.169 C 768.736 637.942 768.609 637.732 768.537 637.466 L 768.417 637.081 L 768.377 636.633 C 768.352 636.492 768.39 636.322 768.434 636.153 C 768.478 635.986 768.51 635.825 768.658 635.658 C 768.773 635.51 768.961 635.302 769.054 635.261 L 769.35 635.094 C 770.522 634.609 771.545 634.828 772.497 635.201 C 774.345 636.041 775.63 637.622 776.453 639.338 C 777.261 641.076 777.604 643.029 777.401 644.932 C 777.206 646.838 776.469 648.646 775.448 650.216 C 773.388 653.382 770.234 655.589 767.018 657.265 C 763.784 658.953 759.96 659.928 756.277 659.109 C 752.597 658.294 749.513 655.677 747.688 652.466 C 746.788 650.846 746.058 649.094 745.977 647.149 C 745.997 646.656 745.998 646.153 746.24 645.638 C 746.278 645.51 746.377 645.388 746.462 645.265 C 746.533 645.144 746.662 645.026 746.826 644.922 C 746.901 644.873 746.984 644.82 747.057 644.784 L 747.22 644.737 L 747.382 644.688 C 747.586 644.649 747.573 644.677 747.68 644.672 C 748.316 644.68 748.85 645.078 749.145 645.485 C 749.478 645.89 749.688 646.341 749.864 646.792 C 750.52 648.614 750.548 650.526 750.342 652.374 C 750.124 654.229 749.556 656.034 748.729 657.708 C 747.049 661.065 744.093 663.704 740.702 665.216 C 739.013 666 737.217 666.518 735.4 666.838 C 734.498 667.034 733.566 667.101 732.645 667.218 C 731.725 667.261 730.864 667.354 729.902 667.333 C 726.253 667.333 722.376 666.721 719.257 664.477 C 716.124 662.276 714.314 658.464 714.253 654.698 C 714.197 652.81 714.478 650.898 715.292 649.12 C 715.717 648.25 716.258 647.349 717.294 646.781 C 717.537 646.622 717.861 646.573 718.164 646.51 C 718.468 646.516 718.82 646.5 719.092 646.628 C 719.382 646.729 719.657 646.86 719.886 647.062 C 720.004 647.156 720.136 647.256 720.232 647.346 L 720.454 647.601 C 721.14 648.385 721.582 649.385 721.674 650.425 C 721.778 651.464 721.532 652.466 721.178 653.374 C 720.45 655.204 719.202 656.698 717.806 657.948 C 714.982 660.42 711.465 662.089 707.718 662.492 C 703.98 662.942 700.014 661.612 697.445 658.784 L 696.565 657.748 C 696.278 657.318 696.06 656.914 695.808 656.492 C 695.442 655.617 695.124 654.716 695.012 653.792 C 694.8 652.873 694.844 651.945 694.77 651.026 C 694.821 650.109 694.808 649.188 694.916 648.278 C 695.249 644.633 696.068 641.073 697.036 637.573 C 698.014 634.07 699.165 630.625 700.416 627.218 C 702.938 620.414 705.786 613.737 708.825 607.153 C 711.873 600.573 715.068 594.068 718.49 587.666 L 718.59 588.193 C 717.088 586.87 715.728 585.44 714.458 583.912 C 713.2 582.382 712.045 580.75 711.128 578.974 C 710.21 577.208 709.516 575.268 709.402 573.229 C 709.358 572.213 709.442 571.18 709.737 570.196 C 710.044 569.218 710.493 568.284 711.101 567.466 C 711.741 566.628 712.397 565.928 713.213 565.308 C 714.012 564.706 714.78 564.062 715.688 563.617 C 716.536 563.073 717.505 562.768 718.442 562.406 L 719.922 562.089 C 720.414 561.977 720.926 562.002 721.428 561.956 C 722.43 561.929 723.446 562.026 724.42 562.262 C 725.401 562.472 726.348 562.825 727.25 563.25 C 728.924 564.037 730.437 565.112 731.762 566.401 Z  M 731.729 567.052 C 730.373 565.698 728.757 564.562 727.009 563.77 C 726.134 563.373 725.224 563.046 724.288 562.86 C 723.356 562.646 722.394 562.57 721.448 562.604 C 720.974 562.658 720.492 562.633 720.028 562.742 L 718.633 563.049 C 717.746 563.401 716.832 563.688 716.024 564.216 C 715.161 564.641 714.425 565.27 713.66 565.849 C 713.262 566.122 712.957 566.472 712.586 566.813 C 712.254 567.164 711.965 567.51 711.684 567.888 C 711.124 568.65 710.721 569.508 710.444 570.401 C 710.18 571.302 710.109 572.248 710.154 573.188 C 710.268 575.073 710.929 576.917 711.824 578.612 C 712.716 580.318 713.848 581.901 715.088 583.388 C 716.33 584.87 717.693 586.284 719.138 587.544 C 719.293 587.677 719.329 587.898 719.238 588.073 C 715.834 594.448 712.598 600.929 709.542 607.486 C 706.484 614.044 703.624 620.696 701.104 627.472 C 699.852 630.862 698.702 634.292 697.725 637.765 C 696.758 641.237 695.942 644.765 695.61 648.338 C 695.5 649.229 695.546 650.125 695.508 651.016 C 695.596 651.896 695.569 652.8 695.786 653.652 C 695.908 654.526 696.22 655.341 696.558 656.122 L 697.217 657.185 L 698.114 658.204 C 700.51 660.724 704.149 661.898 707.598 661.409 C 711.062 660.972 714.362 659.325 716.932 656.982 C 718.184 655.794 719.344 654.442 719.953 652.888 C 720.257 652.122 720.453 651.313 720.373 650.54 C 720.309 649.768 719.981 649.04 719.484 648.458 L 719.261 648.204 C 719.192 648.141 719.133 648.114 719.072 648.065 C 718.962 647.958 718.825 647.904 718.686 647.852 C 718.417 647.761 718.156 647.765 717.87 647.929 C 717.293 648.224 716.789 648.929 716.436 649.669 C 715.72 651.18 715.422 652.945 715.46 654.666 C 715.492 658.12 717.062 661.581 719.905 663.581 C 722.728 665.633 726.38 666.253 729.901 666.261 C 730.752 666.286 731.697 666.196 732.585 666.156 C 733.46 666.044 734.338 665.986 735.209 665.8 C 736.957 665.494 738.672 665.005 740.273 664.268 C 743.486 662.841 746.245 660.39 747.832 657.25 C 748.621 655.69 749.177 653.997 749.4 652.256 C 749.616 650.526 749.592 648.708 749.028 647.101 C 748.768 646.336 748.232 645.529 747.665 645.534 C 747.746 645.469 747.18 645.609 747.253 645.664 C 747.197 645.685 747.073 645.852 747.01 645.994 C 746.849 646.302 746.829 646.734 746.81 647.138 C 746.853 648.836 747.526 650.544 748.374 652.073 C 750.094 655.141 752.997 657.617 756.438 658.401 C 759.892 659.224 763.54 658.226 766.637 656.534 C 769.772 654.833 772.716 652.652 774.572 649.658 C 776.454 646.737 776.897 642.94 775.414 639.828 C 774.696 638.302 773.518 636.914 772.042 636.25 C 771.674 636.106 771.296 635.974 770.918 635.958 C 770.728 635.928 770.545 635.956 770.36 635.969 C 770.265 635.964 770.181 636.005 770.092 636.024 L 769.958 636.057 L 769.893 636.073 C 770.049 635.992 769.893 636.073 769.909 636.068 L 769.612 636.229 C 769.498 636.292 769.594 636.313 769.553 636.325 C 769.528 636.32 769.521 636.388 769.512 636.44 C 769.497 636.492 769.465 636.54 769.488 636.628 L 769.502 636.857 L 769.588 637.12 C 769.624 637.294 769.734 637.477 769.821 637.656 C 770.625 639.106 771.952 640.37 773.317 641.472 C 774.7 642.576 776.205 643.54 777.792 644.33 C 780.944 645.877 784.57 646.833 787.961 646.01 C 791.365 645.24 793.949 642.27 795.06 638.997 L 795.28 638.354 C 795.342 638.141 795.341 637.934 795.376 637.726 C 795.42 637.305 795.509 636.896 795.524 636.466 C 795.485 635.594 795.522 634.716 795.325 633.846 C 795.092 632.096 794.486 630.398 793.857 628.732 C 791.133 622.086 786.794 616.188 782.309 610.562 C 777.768 604.945 772.877 599.612 767.826 594.44 C 762.766 589.281 757.614 584.19 752.249 579.36 C 752.114 579.237 752.054 579.057 752.073 578.89 C 752.549 574.874 752.761 570.789 752.593 566.745 C 752.486 564.726 752.3 562.706 751.845 560.756 C 751.624 559.781 751.338 558.82 750.928 557.932 C 750.522 557.044 750.001 556.206 749.294 555.596 C 748.597 554.98 747.694 554.661 746.773 554.656 C 745.758 554.688 744.705 554.612 743.76 554.82 C 742.781 554.906 741.838 555.234 740.886 555.513 L 739.538 556.138 C 739.085 556.341 738.697 556.658 738.272 556.914 C 737.46 557.48 736.702 558.138 736.048 558.89 C 735.372 559.622 734.794 560.448 734.286 561.31 C 733.268 563.034 732.54 564.961 732.157 566.917 C 732.133 567.054 732.002 567.146 731.864 567.122 C 731.813 567.112 731.764 567.086 731.729 567.052 Z " fill="rgb(67,64,64)"/></g><mask id="_mask_s3NK99Flj0w3oDkrEyvMZsc0hPC0PQF2" x="-200%" y="-200%" width="400%" height="400%"><rect x="-200%" y="-200%" width="400%" height="400%" style="fill:white;"/><path d=" M 820.665 651.215 C 820.742 648.891 824.501 643.831 825.392 643.852 L 825.392 643.852 L 825.392 643.852 L 825.392 643.852 L 825.392 643.852 L 825.392 643.852 C 829.458 643.961 826.422 648.786 823.702 651.072 C 827.263 650.88 831.09 650.601 835.104 650.19 C 837.305 649.956 839.564 649.69 841.861 649.344 C 844.154 648.956 846.494 648.557 848.864 648.105 C 853.612 647.258 858.536 646.482 863.492 645.428 C 865.001 645.098 866.513 644.747 868.028 644.39 C 868.268 644.101 868.688 644.022 869.221 644.102 C 869.793 643.964 870.365 643.826 870.938 643.688 C 873.405 642.996 875.92 642.433 878.386 641.698 C 880.857 640.982 883.346 640.316 885.762 639.45 C 886.98 639.05 888.185 638.62 889.385 638.188 C 890.561 637.693 891.734 637.201 892.902 636.709 C 897.596 634.816 902.212 632.94 906.57 630.876 C 910.937 628.833 915.048 626.625 918.852 624.376 C 920.78 623.292 922.524 622.026 924.249 620.868 C 925.988 619.726 927.598 618.532 929.154 617.396 C 932.338 615.224 935.048 612.956 937.517 611.032 C 939.894 608.997 941.956 607.206 943.632 605.706 C 946.876 602.584 948.729 600.797 948.729 600.797 L 948.74 600.786 C 948.838 600.693 948.996 600.696 949.092 600.794 C 949.185 600.89 949.184 601.042 949.093 601.138 C 949.093 601.138 947.316 603.016 944.204 606.302 C 942.561 607.857 940.554 609.742 938.202 611.844 C 935.741 613.818 933.058 616.169 929.861 618.381 C 929.069 618.942 928.261 619.518 927.437 620.105 C 926.602 620.672 925.708 621.185 924.822 621.742 C 923.021 622.81 921.232 624.026 919.276 625.086 C 915.466 627.378 911.34 629.605 906.994 631.756 C 904.801 632.789 902.608 633.925 900.302 634.881 C 898.01 635.868 895.698 636.89 893.276 637.688 C 890.862 638.496 888.432 639.308 885.989 640.125 C 883.562 640.982 881.1 641.764 878.636 642.545 C 876.123 643.347 873.585 644.062 871.042 644.708 C 873.448 645.799 876.328 648.084 876.314 648.755 L 876.314 648.755 L 876.314 648.755 C 876.206 653.688 869.109 648.21 868.023 645.483 C 866.589 645.832 865.156 646.17 863.729 646.5 C 858.758 647.576 853.874 648.745 849.058 649.338 C 844.25 649.972 839.58 650.341 835.174 650.873 C 830.757 651.292 826.58 651.709 822.712 651.914 C 822.641 651.919 822.57 651.923 822.501 651.926 C 821.891 652.273 821.373 652.387 821.054 652.172 C 820.989 652.128 820.934 652.077 820.885 652.021 C 817.722 652.196 814.793 652.309 812.146 652.316 C 808.998 652.341 806.253 652.302 803.994 652.242 C 801.734 652.188 799.961 652.084 798.752 651.997 C 797.542 651.904 796.898 651.854 796.898 651.854 C 796.761 651.844 796.657 651.724 796.668 651.586 C 796.678 651.453 796.8 651.352 796.934 651.357 C 796.934 651.357 799.501 651.493 804.008 651.55 C 806.261 651.573 808.997 651.573 812.133 651.497 C 814.711 651.42 817.563 651.364 820.665 651.215 L 820.665 651.215 L 820.665 651.215 L 820.665 651.215 L 820.665 651.215 L 820.665 651.215 Z  M 915.441 617.591 C 914.383 617.567 909.29 624.687 911.101 625.911 C 912.911 627.135 921.129 617.742 915.441 617.591 L 915.441 617.591 L 915.441 617.591 L 915.441 617.591 L 915.441 617.591 L 915.441 617.591 L 915.441 617.591 L 915.441 617.591 L 915.441 617.591 L 915.441 617.591 L 915.441 617.591 Z  M 876.21 633.336 C 875.152 633.308 870.06 640.435 871.871 641.656 C 873.682 642.877 881.9 633.489 876.21 633.336 L 876.21 633.336 L 876.21 633.336 L 876.21 633.336 L 876.21 633.336 L 876.21 633.336 L 876.21 633.336 L 876.21 633.336 L 876.21 633.336 L 876.21 633.336 Z  M 833.656 658.774 C 833.678 657.711 826.53 652.656 825.316 654.474 C 824.103 656.292 833.534 664.462 833.656 658.774 L 833.656 658.774 L 833.656 658.774 L 833.656 658.774 L 833.656 658.774 L 833.656 658.774 L 833.656 658.774 L 833.656 658.774 L 833.656 658.774 Z  M 923.607 629.31 C 923.061 628.406 914.317 627.943 914.26 630.122 C 914.204 632.31 926.537 634.19 923.607 629.31 L 923.607 629.31 L 923.607 629.31 L 923.607 629.31 L 923.607 629.31 L 923.607 629.31 L 923.607 629.31 Z  M 846.62 646.82 C 846.822 647.547 846.394 648.302 845.666 648.503 C 844.936 648.703 844.183 648.279 843.982 647.547 C 843.782 646.818 844.208 646.066 844.938 645.862 C 845.667 645.664 846.42 646.091 846.62 646.82 L 846.62 646.82 L 846.62 646.82 L 846.62 646.82 L 846.62 646.82 Z  M 858.068 653.49 C 858.331 654.446 857.863 655.404 857.02 655.635 C 856.18 655.867 855.286 655.284 855.023 654.328 C 854.76 653.378 855.231 652.416 856.07 652.187 C 856.91 651.954 857.804 652.536 858.068 653.49 L 858.068 653.49 L 858.068 653.49 L 858.068 653.49 Z  M 888.07 630.044 C 888.255 630.716 887.77 631.438 886.984 631.654 C 886.2 631.867 885.415 631.5 885.23 630.828 C 885.042 630.154 885.528 629.435 886.315 629.219 C 887.098 629.003 887.886 629.37 888.07 630.044 L 888.07 630.044 L 888.07 630.044 Z  M 936.38 619.938 C 936.151 619.359 936.529 618.672 937.224 618.394 C 937.919 618.12 938.667 618.362 938.895 618.935 C 939.124 619.511 938.745 620.2 938.048 620.474 C 937.356 620.75 936.607 620.511 936.38 619.938 L 936.38 619.938 Z  M 932.642 619.279 C 932.432 618.755 932.672 618.169 933.174 617.967 C 933.678 617.773 934.252 618.033 934.459 618.555 C 934.668 619.079 934.428 619.664 933.924 619.86 C 933.424 620.063 932.848 619.803 932.642 619.279 Z " fill-rule="evenodd" fill="black" stroke="none"/></mask><path d=" M 820.665 651.215 C 820.742 648.891 824.501 643.831 825.392 643.852 L 825.392 643.852 L 825.392 643.852 L 825.392 643.852 L 825.392 643.852 L 825.392 643.852 C 829.458 643.961 826.422 648.786 823.702 651.072 C 827.263 650.88 831.09 650.601 835.104 650.19 C 837.305 649.956 839.564 649.69 841.861 649.344 C 844.154 648.956 846.494 648.557 848.864 648.105 C 853.612 647.258 858.536 646.482 863.492 645.428 C 865.001 645.098 866.513 644.747 868.028 644.39 C 868.268 644.101 868.688 644.022 869.221 644.102 C 869.793 643.964 870.365 643.826 870.938 643.688 C 873.405 642.996 875.92 642.433 878.386 641.698 C 880.857 640.982 883.346 640.316 885.762 639.45 C 886.98 639.05 888.185 638.62 889.385 638.188 C 890.561 637.693 891.734 637.201 892.902 636.709 C 897.596 634.816 902.212 632.94 906.57 630.876 C 910.937 628.833 915.048 626.625 918.852 624.376 C 920.78 623.292 922.524 622.026 924.249 620.868 C 925.988 619.726 927.598 618.532 929.154 617.396 C 932.338 615.224 935.048 612.956 937.517 611.032 C 939.894 608.997 941.956 607.206 943.632 605.706 C 946.876 602.584 948.729 600.797 948.729 600.797 L 948.74 600.786 C 948.838 600.693 948.996 600.696 949.092 600.794 C 949.185 600.89 949.184 601.042 949.093 601.138 C 949.093 601.138 947.316 603.016 944.204 606.302 C 942.561 607.857 940.554 609.742 938.202 611.844 C 935.741 613.818 933.058 616.169 929.861 618.381 C 929.069 618.942 928.261 619.518 927.437 620.105 C 926.602 620.672 925.708 621.185 924.822 621.742 C 923.021 622.81 921.232 624.026 919.276 625.086 C 915.466 627.378 911.34 629.605 906.994 631.756 C 904.801 632.789 902.608 633.925 900.302 634.881 C 898.01 635.868 895.698 636.89 893.276 637.688 C 890.862 638.496 888.432 639.308 885.989 640.125 C 883.562 640.982 881.1 641.764 878.636 642.545 C 876.123 643.347 873.585 644.062 871.042 644.708 C 873.448 645.799 876.328 648.084 876.314 648.755 L 876.314 648.755 L 876.314 648.755 C 876.206 653.688 869.109 648.21 868.023 645.483 C 866.589 645.832 865.156 646.17 863.729 646.5 C 858.758 647.576 853.874 648.745 849.058 649.338 C 844.25 649.972 839.58 650.341 835.174 650.873 C 830.757 651.292 826.58 651.709 822.712 651.914 C 822.641 651.919 822.57 651.923 822.501 651.926 C 821.891 652.273 821.373 652.387 821.054 652.172 C 820.989 652.128 820.934 652.077 820.885 652.021 C 817.722 652.196 814.793 652.309 812.146 652.316 C 808.998 652.341 806.253 652.302 803.994 652.242 C 801.734 652.188 799.961 652.084 798.752 651.997 C 797.542 651.904 796.898 651.854 796.898 651.854 C 796.761 651.844 796.657 651.724 796.668 651.586 C 796.678 651.453 796.8 651.352 796.934 651.357 C 796.934 651.357 799.501 651.493 804.008 651.55 C 806.261 651.573 808.997 651.573 812.133 651.497 C 814.711 651.42 817.563 651.364 820.665 651.215 L 820.665 651.215 L 820.665 651.215 L 820.665 651.215 L 820.665 651.215 L 820.665 651.215 Z  M 915.441 617.591 C 914.383 617.567 909.29 624.687 911.101 625.911 C 912.911 627.135 921.129 617.742 915.441 617.591 L 915.441 617.591 L 915.441 617.591 L 915.441 617.591 L 915.441 617.591 L 915.441 617.591 L 915.441 617.591 L 915.441 617.591 L 915.441 617.591 L 915.441 617.591 L 915.441 617.591 Z  M 876.21 633.336 C 875.152 633.308 870.06 640.435 871.871 641.656 C 873.682 642.877 881.9 633.489 876.21 633.336 L 876.21 633.336 L 876.21 633.336 L 876.21 633.336 L 876.21 633.336 L 876.21 633.336 L 876.21 633.336 L 876.21 633.336 L 876.21 633.336 L 876.21 633.336 Z  M 833.656 658.774 C 833.678 657.711 826.53 652.656 825.316 654.474 C 824.103 656.292 833.534 664.462 833.656 658.774 L 833.656 658.774 L 833.656 658.774 L 833.656 658.774 L 833.656 658.774 L 833.656 658.774 L 833.656 658.774 L 833.656 658.774 L 833.656 658.774 Z  M 923.607 629.31 C 923.061 628.406 914.317 627.943 914.26 630.122 C 914.204 632.31 926.537 634.19 923.607 629.31 L 923.607 629.31 L 923.607 629.31 L 923.607 629.31 L 923.607 629.31 L 923.607 629.31 L 923.607 629.31 Z  M 846.62 646.82 C 846.822 647.547 846.394 648.302 845.666 648.503 C 844.936 648.703 844.183 648.279 843.982 647.547 C 843.782 646.818 844.208 646.066 844.938 645.862 C 845.667 645.664 846.42 646.091 846.62 646.82 L 846.62 646.82 L 846.62 646.82 L 846.62 646.82 L 846.62 646.82 Z  M 858.068 653.49 C 858.331 654.446 857.863 655.404 857.02 655.635 C 856.18 655.867 855.286 655.284 855.023 654.328 C 854.76 653.378 855.231 652.416 856.07 652.187 C 856.91 651.954 857.804 652.536 858.068 653.49 L 858.068 653.49 L 858.068 653.49 L 858.068 653.49 Z  M 888.07 630.044 C 888.255 630.716 887.77 631.438 886.984 631.654 C 886.2 631.867 885.415 631.5 885.23 630.828 C 885.042 630.154 885.528 629.435 886.315 629.219 C 887.098 629.003 887.886 629.37 888.07 630.044 L 888.07 630.044 L 888.07 630.044 Z  M 936.38 619.938 C 936.151 619.359 936.529 618.672 937.224 618.394 C 937.919 618.12 938.667 618.362 938.895 618.935 C 939.124 619.511 938.745 620.2 938.048 620.474 C 937.356 620.75 936.607 620.511 936.38 619.938 L 936.38 619.938 Z  M 932.642 619.279 C 932.432 618.755 932.672 618.169 933.174 617.967 C 933.678 617.773 934.252 618.033 934.459 618.555 C 934.668 619.079 934.428 619.664 933.924 619.86 C 933.424 620.063 932.848 619.803 932.642 619.279 Z " fill-rule="evenodd" fill="rgb(255,255,255)" mask="url(#_mask_s3NK99Flj0w3oDkrEyvMZsc0hPC0PQF2)" vector-effect="non-scaling-stroke" stroke-width="0.2" stroke="rgb(0,0,0)" stroke-linejoin="miter" stroke-linecap="butt" stroke-miterlimit="4"/><mask id="_mask_M3YR2QqziASavtoaOZQERq2F86EoY2lb" x="-200%" y="-200%" width="400%" height="400%"><rect x="-200%" y="-200%" width="400%" height="400%" style="fill:white;"/><path d=" M 855.254 496.027 C 857.885 495.907 860.487 495.794 863.052 495.878 C 865.93 495.907 868.762 495.899 871.522 496.159 C 874.283 496.372 876.998 496.464 879.608 496.862 C 882.219 497.244 884.775 497.506 887.206 498.011 C 889.636 498.519 891.987 498.984 894.248 499.404 C 896.504 499.85 898.635 500.422 900.68 500.888 C 902.719 501.378 904.666 501.795 906.446 502.378 C 908.24 502.904 909.92 503.396 911.474 503.852 C 913.032 504.292 914.458 504.719 915.714 505.198 C 920.794 506.962 923.698 507.971 923.698 507.971 L 923.711 507.974 C 923.836 508.019 923.975 507.956 924.024 507.831 C 924.075 507.703 924.011 507.558 923.883 507.508 C 923.883 507.508 921.011 506.383 915.986 504.416 C 914.735 503.904 913.315 503.438 911.76 502.956 C 910.21 502.462 908.532 501.927 906.739 501.355 C 904.956 500.747 903.003 500.3 900.958 499.779 C 898.904 499.29 896.77 498.662 894.496 498.216 C 892.218 497.795 889.839 497.383 887.375 496.979 C 886.148 496.744 884.878 496.656 883.599 496.503 C 882.319 496.35 881.02 496.195 879.703 496.039 C 877.08 495.631 874.354 495.516 871.579 495.287 C 868.804 495.019 865.96 494.971 863.066 494.902 C 860.171 494.763 857.23 494.875 854.25 494.951 C 851.267 494.968 848.263 495.284 845.24 495.599 L 842.972 495.867 L 840.71 496.235 C 839.196 496.459 837.68 496.686 836.155 496.875 C 833.12 497.344 830.082 497.88 827.042 498.414 C 820.995 499.648 814.994 501.14 809.21 503.008 C 803.398 504.782 797.746 506.784 792.44 509.107 C 789.82 510.344 787.228 511.519 784.767 512.823 C 782.268 514.052 779.843 515.284 777.502 516.523 C 775.138 517.722 772.916 519.034 770.719 520.214 C 768.575 521.484 766.47 522.659 764.519 523.904 C 756.62 528.732 750.463 533.41 746.271 536.802 C 744.166 538.492 742.575 539.899 741.503 540.87 C 740.428 541.839 739.876 542.383 739.876 542.383 C 739.782 542.476 739.775 542.632 739.866 542.732 C 739.959 542.834 740.118 542.839 740.219 542.744 C 740.219 542.744 742.478 540.672 746.706 537.347 C 748.803 535.667 751.432 533.73 754.476 531.55 C 757.567 529.44 761.012 526.992 764.936 524.574 C 768.84 522.128 773.131 519.563 777.82 517.131 C 782.447 514.574 787.603 512.43 792.928 510.258 C 798.294 508.19 803.763 505.839 809.542 504.055 C 815.274 502.134 821.248 500.7 827.22 499.276 C 830.231 498.686 833.238 498.034 836.263 497.578 C 839.296 497.192 842.315 496.735 845.34 496.64 C 847.656 496.517 849.948 496.275 852.229 496.14 C 849.492 498.078 846.359 502.007 850.093 503.146 C 851.945 503.709 855.253 498.283 855.254 496.027 L 855.254 496.027 L 855.254 496.027 L 855.254 496.027 L 855.254 496.027 L 855.254 496.027 Z  M 842.583 487.102 C 842.067 489.287 849.725 492.907 850.832 491.49 C 851.939 490.075 843.875 481.604 842.583 487.102 L 842.583 487.102 L 842.583 487.102 L 842.583 487.102 L 842.583 487.102 L 842.583 487.102 Z  M 776.158 510.969 C 776.613 513.166 785.083 513.217 785.491 511.464 C 785.899 509.72 775.011 505.436 776.158 510.969 L 776.158 510.969 L 776.158 510.969 L 776.158 510.969 L 776.158 510.969 Z  M 786.982 522.531 C 789.136 521.893 788.478 513.446 786.701 513.187 C 784.925 512.927 781.568 524.133 786.982 522.531 L 786.982 522.531 L 786.982 522.531 L 786.982 522.531 Z  M 807.943 498.336 C 807.529 496.839 805.985 495.964 804.491 496.377 C 802.995 496.787 802.117 498.333 802.531 499.828 C 802.941 501.323 804.487 502.2 805.981 501.789 C 807.477 501.377 808.353 499.828 807.943 498.336 L 807.943 498.336 L 807.943 498.336 Z  M 898.714 492.82 C 898.507 492.071 897.735 491.63 896.987 491.836 C 896.239 492.044 895.799 492.815 896.007 493.566 C 896.213 494.315 896.986 494.752 897.734 494.544 C 898.482 494.339 898.919 493.568 898.714 492.82 L 898.714 492.82 Z  M 834.588 502.055 C 834.381 501.306 833.609 500.87 832.862 501.076 C 832.116 501.279 831.676 502.05 831.882 502.8 C 832.088 503.547 832.861 503.984 833.608 503.779 C 834.354 503.574 834.792 502.8 834.588 502.055 Z " fill-rule="evenodd" fill="black" stroke="none"/></mask><path d=" M 855.254 496.027 C 857.885 495.907 860.487 495.794 863.052 495.878 C 865.93 495.907 868.762 495.899 871.522 496.159 C 874.283 496.372 876.998 496.464 879.608 496.862 C 882.219 497.244 884.775 497.506 887.206 498.011 C 889.636 498.519 891.987 498.984 894.248 499.404 C 896.504 499.85 898.635 500.422 900.68 500.888 C 902.719 501.378 904.666 501.795 906.446 502.378 C 908.24 502.904 909.92 503.396 911.474 503.852 C 913.032 504.292 914.458 504.719 915.714 505.198 C 920.794 506.962 923.698 507.971 923.698 507.971 L 923.711 507.974 C 923.836 508.019 923.975 507.956 924.024 507.831 C 924.075 507.703 924.011 507.558 923.883 507.508 C 923.883 507.508 921.011 506.383 915.986 504.416 C 914.735 503.904 913.315 503.438 911.76 502.956 C 910.21 502.462 908.532 501.927 906.739 501.355 C 904.956 500.747 903.003 500.3 900.958 499.779 C 898.904 499.29 896.77 498.662 894.496 498.216 C 892.218 497.795 889.839 497.383 887.375 496.979 C 886.148 496.744 884.878 496.656 883.599 496.503 C 882.319 496.35 881.02 496.195 879.703 496.039 C 877.08 495.631 874.354 495.516 871.579 495.287 C 868.804 495.019 865.96 494.971 863.066 494.902 C 860.171 494.763 857.23 494.875 854.25 494.951 C 851.267 494.968 848.263 495.284 845.24 495.599 L 842.972 495.867 L 840.71 496.235 C 839.196 496.459 837.68 496.686 836.155 496.875 C 833.12 497.344 830.082 497.88 827.042 498.414 C 820.995 499.648 814.994 501.14 809.21 503.008 C 803.398 504.782 797.746 506.784 792.44 509.107 C 789.82 510.344 787.228 511.519 784.767 512.823 C 782.268 514.052 779.843 515.284 777.502 516.523 C 775.138 517.722 772.916 519.034 770.719 520.214 C 768.575 521.484 766.47 522.659 764.519 523.904 C 756.62 528.732 750.463 533.41 746.271 536.802 C 744.166 538.492 742.575 539.899 741.503 540.87 C 740.428 541.839 739.876 542.383 739.876 542.383 C 739.782 542.476 739.775 542.632 739.866 542.732 C 739.959 542.834 740.118 542.839 740.219 542.744 C 740.219 542.744 742.478 540.672 746.706 537.347 C 748.803 535.667 751.432 533.73 754.476 531.55 C 757.567 529.44 761.012 526.992 764.936 524.574 C 768.84 522.128 773.131 519.563 777.82 517.131 C 782.447 514.574 787.603 512.43 792.928 510.258 C 798.294 508.19 803.763 505.839 809.542 504.055 C 815.274 502.134 821.248 500.7 827.22 499.276 C 830.231 498.686 833.238 498.034 836.263 497.578 C 839.296 497.192 842.315 496.735 845.34 496.64 C 847.656 496.517 849.948 496.275 852.229 496.14 C 849.492 498.078 846.359 502.007 850.093 503.146 C 851.945 503.709 855.253 498.283 855.254 496.027 L 855.254 496.027 L 855.254 496.027 L 855.254 496.027 L 855.254 496.027 L 855.254 496.027 Z  M 842.583 487.102 C 842.067 489.287 849.725 492.907 850.832 491.49 C 851.939 490.075 843.875 481.604 842.583 487.102 L 842.583 487.102 L 842.583 487.102 L 842.583 487.102 L 842.583 487.102 L 842.583 487.102 Z  M 776.158 510.969 C 776.613 513.166 785.083 513.217 785.491 511.464 C 785.899 509.72 775.011 505.436 776.158 510.969 L 776.158 510.969 L 776.158 510.969 L 776.158 510.969 L 776.158 510.969 Z  M 786.982 522.531 C 789.136 521.893 788.478 513.446 786.701 513.187 C 784.925 512.927 781.568 524.133 786.982 522.531 L 786.982 522.531 L 786.982 522.531 L 786.982 522.531 Z  M 807.943 498.336 C 807.529 496.839 805.985 495.964 804.491 496.377 C 802.995 496.787 802.117 498.333 802.531 499.828 C 802.941 501.323 804.487 502.2 805.981 501.789 C 807.477 501.377 808.353 499.828 807.943 498.336 L 807.943 498.336 L 807.943 498.336 Z  M 898.714 492.82 C 898.507 492.071 897.735 491.63 896.987 491.836 C 896.239 492.044 895.799 492.815 896.007 493.566 C 896.213 494.315 896.986 494.752 897.734 494.544 C 898.482 494.339 898.919 493.568 898.714 492.82 L 898.714 492.82 Z  M 834.588 502.055 C 834.381 501.306 833.609 500.87 832.862 501.076 C 832.116 501.279 831.676 502.05 831.882 502.8 C 832.088 503.547 832.861 503.984 833.608 503.779 C 834.354 503.574 834.792 502.8 834.588 502.055 Z " fill-rule="evenodd" fill="rgb(255,255,255)" mask="url(#_mask_M3YR2QqziASavtoaOZQERq2F86EoY2lb)" vector-effect="non-scaling-stroke" stroke-width="0.2" stroke="rgb(0,0,0)" stroke-linejoin="miter" stroke-linecap="butt" stroke-miterlimit="4"/></g></g></svg>