<?xml version="1.0" standalone="no"?><!-- Generator: Gravit.io --><svg xmlns="http://www.w3.org/2000/svg" xmlns:xlink="http://www.w3.org/1999/xlink" style="isolation:isolate" viewBox="1285 1170 666.667 666.667" width="666.667" height="666.667"><defs><clipPath id="_clipPath_krSBzMhhfb66necuZTSWQFKTpu4F4AIQ"><rect x="1285" y="1170" width="666.667" height="666.667"/></clipPath></defs><g clip-path="url(#_clipPath_krSBzMhhfb66necuZTSWQFKTpu4F4AIQ)"><g style="isolation:isolate"><g><g><path d=" M 1545.408 1224.052 C 1540.844 1230.214 1550.489 1299.516 1573.945 1298 C 1597.401 1296.479 1612.34 1232.383 1604.235 1220.935 C 1599.711 1214.547 1555.171 1210.878 1545.408 1224.052 Z " fill="rgb(255,255,255)"/></g><g><path d=" M 1543.721 1223.703 C 1543.721 1223.703 1543.873 1223.523 1544.166 1223.173 C 1544.314 1222.995 1544.498 1222.779 1544.716 1222.518 C 1544.962 1222.289 1545.249 1222.021 1545.572 1221.719 C 1546.888 1220.542 1549.088 1219.11 1552.145 1217.925 C 1558.26 1215.555 1567.62 1214.086 1578.785 1214.438 C 1581.577 1214.545 1584.48 1214.794 1587.462 1215.231 C 1590.444 1215.654 1593.514 1216.227 1596.602 1217.13 C 1598.141 1217.597 1599.702 1218.11 1601.185 1218.938 C 1601.554 1219.125 1601.925 1219.386 1602.289 1219.677 C 1602.488 1219.815 1602.63 1219.966 1602.762 1220.119 L 1602.972 1220.346 C 1603.018 1220.403 1603.013 1220.383 1603.105 1220.501 L 1603.186 1220.643 L 1603.836 1221.785 L 1604.29 1222.998 C 1605.336 1226.291 1605.453 1229.782 1605.429 1233.271 C 1605.254 1240.263 1604.23 1247.451 1602.342 1254.523 C 1600.38 1261.573 1598.132 1268.665 1595.101 1275.469 C 1593.577 1278.862 1591.856 1282.179 1589.814 1285.291 C 1587.778 1288.401 1585.453 1291.351 1582.621 1293.774 C 1581.89 1294.351 1581.209 1294.987 1580.4 1295.461 L 1579.232 1296.227 C 1578.833 1296.466 1578.4 1296.651 1577.985 1296.865 C 1577.557 1297.058 1577.168 1297.31 1576.708 1297.451 L 1575.342 1297.891 C 1574.882 1298.065 1574.436 1298.149 1573.997 1298.203 L 1572.67 1298.414 C 1568.778 1298.73 1565.174 1297.05 1562.525 1294.675 C 1559.833 1292.302 1557.888 1289.378 1556.216 1286.466 C 1555.774 1285.747 1555.378 1285.01 1555.008 1284.266 C 1554.633 1283.526 1554.234 1282.799 1553.901 1282.05 C 1553.55 1281.307 1553.202 1280.57 1552.857 1279.839 C 1552.542 1279.091 1552.229 1278.351 1551.918 1277.615 C 1549.488 1271.701 1547.817 1265.886 1546.458 1260.487 C 1545.153 1255.073 1544.185 1250.053 1543.61 1245.563 C 1543.01 1241.078 1542.697 1237.141 1542.58 1233.891 C 1542.468 1230.641 1542.582 1228.073 1542.87 1226.331 C 1542.977 1225.477 1543.228 1224.742 1543.39 1224.339 C 1543.596 1223.941 1543.702 1223.734 1543.702 1223.734 L 1543.721 1223.703 Z  M 1544.141 1223.971 C 1544.141 1223.971 1544.037 1224.177 1543.836 1224.578 C 1543.709 1224.777 1543.7 1225.034 1543.604 1225.331 C 1543.512 1225.619 1543.445 1225.987 1543.392 1226.414 C 1543.132 1228.102 1543.044 1230.643 1543.192 1233.867 C 1543.333 1237.091 1543.728 1241.001 1544.393 1245.453 C 1545.09 1249.898 1545.94 1254.911 1547.225 1260.302 C 1548.532 1265.682 1550.185 1271.471 1552.578 1277.343 C 1553.737 1280.294 1555.178 1283.227 1556.906 1286.055 C 1558.657 1288.859 1560.744 1291.57 1563.334 1293.727 C 1564.005 1294.23 1564.63 1294.81 1565.381 1295.19 L 1566.46 1295.839 C 1566.834 1296.018 1567.229 1296.162 1567.613 1296.326 C 1568.368 1296.711 1569.202 1296.821 1570.018 1297.015 C 1570.422 1297.146 1570.85 1297.091 1571.268 1297.122 C 1571.668 1297.13 1572.156 1297.167 1572.485 1297.151 C 1574.314 1296.941 1575.917 1296.605 1577.486 1295.813 C 1577.877 1295.621 1578.286 1295.458 1578.666 1295.239 L 1579.782 1294.534 C 1580.552 1294.094 1581.209 1293.485 1581.912 1292.938 C 1584.642 1290.63 1586.936 1287.766 1588.95 1284.725 C 1590.954 1281.667 1592.716 1278.427 1594.301 1275.099 C 1597.4 1268.417 1599.872 1261.398 1601.357 1254.282 C 1602.924 1247.201 1604.25 1240.146 1604.453 1233.25 C 1604.522 1229.826 1604.442 1226.375 1603.461 1223.277 C 1602.773 1219.843 1599.302 1218.881 1596.372 1217.927 C 1590.268 1216.307 1584.242 1215.891 1578.738 1215.649 C 1573.221 1215.401 1568.144 1215.573 1563.689 1216.089 C 1559.238 1216.621 1555.4 1217.469 1552.393 1218.583 C 1549.378 1219.682 1547.221 1221.029 1545.934 1222.135 C 1545.617 1222.419 1545.337 1222.67 1545.096 1222.886 C 1544.884 1223.13 1544.704 1223.337 1544.56 1223.501 C 1544.272 1223.831 1544.122 1224.001 1544.122 1224.001 L 1544.141 1223.971 Z " fill="rgb(67,64,64)"/></g><g><path d=" M 1581.828 1207.794 C 1579.463 1206.586 1574.732 1214.284 1574.732 1214.284 C 1574.691 1214.354 1574.667 1214.425 1574.635 1214.492 C 1574.333 1214.068 1573.845 1213.778 1573.283 1213.816 L 1571.853 1213.898 C 1571.168 1213.937 1570.631 1214.417 1570.456 1215.037 C 1570.408 1214.95 1570.367 1214.862 1570.311 1214.764 C 1570.311 1214.764 1564.875 1207.549 1562.633 1208.974 C 1560.392 1210.406 1561.36 1219.06 1563.127 1219.584 C 1564.892 1220.109 1570.044 1217.474 1570.044 1217.474 C 1570.236 1217.308 1570.38 1217.156 1570.501 1217.013 C 1570.635 1217.789 1571.308 1218.365 1572.113 1218.318 L 1573.545 1218.237 C 1574.344 1218.188 1574.944 1217.542 1574.988 1216.761 C 1575.072 1216.833 1575.159 1216.901 1575.256 1216.956 C 1575.256 1216.956 1580.635 1219.094 1582.344 1218.401 C 1584.053 1217.71 1584.195 1209.005 1581.828 1207.794 Z " fill="rgb(67,64,64)"/></g><g><path d=" M 1559.871 1216.763 C 1559.871 1216.763 1573.261 1272.463 1573.787 1281.492 C 1573.787 1281.492 1556.164 1245.299 1554.556 1237.88 C 1552.949 1230.463 1556.715 1217.195 1556.715 1217.195" fill="rgb(67,64,64)"/></g><g><path d=" M 1584.663 1215.604 C 1584.663 1215.604 1574.048 1272.456 1573.787 1281.492 C 1573.787 1281.492 1591.389 1243.927 1592.781 1236.464 C 1594.176 1229.003 1588.968 1216.167 1588.968 1216.167" fill="rgb(67,64,64)"/></g><g><path d=" M 1560.113 1216.703 C 1560.825 1219.373 1561.49 1222.05 1562.144 1224.731 C 1562.79 1227.414 1563.477 1230.089 1564.081 1232.785 L 1567.7 1248.943 C 1568.296 1251.638 1569.018 1254.305 1569.738 1256.974 C 1570.06 1258.318 1570.402 1259.657 1570.678 1261.009 C 1570.978 1262.357 1571.229 1263.717 1571.494 1265.07 L 1573.022 1273.222 C 1573.265 1274.583 1573.568 1275.925 1573.722 1277.318 C 1573.914 1278.701 1574.084 1280.083 1574.248 1281.466 C 1574.277 1281.717 1574.098 1281.943 1573.848 1281.974 C 1573.646 1281.998 1573.46 1281.889 1573.378 1281.714 L 1573.37 1281.695 L 1569.756 1273.906 C 1568.528 1271.323 1567.061 1268.851 1565.898 1266.234 C 1564.672 1263.649 1563.546 1261.015 1562.384 1258.401 C 1561.217 1255.786 1560.088 1253.154 1558.954 1250.523 C 1557.801 1247.903 1556.742 1245.237 1555.568 1242.615 C 1555.006 1241.289 1554.584 1239.878 1554.122 1238.495 C 1554.065 1238.31 1554.009 1238.177 1553.952 1237.946 L 1553.864 1237.417 C 1553.813 1237.061 1553.74 1236.722 1553.71 1236.349 C 1553.657 1235.605 1553.584 1234.851 1553.597 1234.127 C 1553.569 1231.209 1553.913 1228.334 1554.438 1225.503 C 1554.945 1222.667 1555.64 1219.881 1556.474 1217.127 C 1556.514 1216.995 1556.654 1216.919 1556.785 1216.961 C 1556.913 1217.001 1556.985 1217.135 1556.954 1217.263 C 1556.292 1220.031 1555.777 1222.843 1555.36 1225.654 C 1555.145 1227.058 1555.013 1228.471 1554.876 1229.881 C 1554.78 1231.289 1554.692 1232.703 1554.752 1234.105 C 1554.752 1234.813 1554.836 1235.485 1554.893 1236.165 C 1554.924 1236.506 1555.008 1236.867 1555.062 1237.217 L 1555.149 1237.745 L 1555.297 1238.219 C 1555.748 1239.55 1556.085 1240.898 1556.558 1242.239 L 1558.066 1246.242 C 1558.554 1247.583 1559.164 1248.878 1559.736 1250.187 C 1560.882 1252.805 1562.042 1255.414 1563.277 1257.995 L 1566.94 1265.75 C 1568.184 1268.323 1569.161 1271.023 1570.392 1273.605 C 1571.609 1276.193 1572.916 1278.737 1574.201 1281.291 L 1573.325 1281.518 C 1573.109 1280.167 1572.897 1278.818 1572.708 1277.466 C 1572.546 1276.118 1572.228 1274.766 1571.974 1273.414 L 1571.172 1269.359 C 1570.914 1268.009 1570.588 1266.667 1570.278 1265.323 C 1569.97 1263.979 1569.646 1262.638 1569.372 1261.287 C 1569.076 1259.941 1568.842 1258.581 1568.59 1257.225 C 1568.112 1254.506 1567.63 1251.786 1567.025 1249.094 C 1566.446 1246.397 1565.817 1243.711 1565.169 1241.029 L 1563.262 1232.974 C 1562.608 1230.291 1562.044 1227.591 1561.424 1224.901 C 1560.805 1222.214 1560.205 1219.521 1559.629 1216.821 C 1559.6 1216.685 1559.685 1216.553 1559.82 1216.523 C 1559.95 1216.498 1560.08 1216.578 1560.113 1216.703 Z " fill="rgb(67,64,64)"/></g><g><path d=" M 1584.908 1215.649 C 1584.465 1218.399 1584 1221.141 1583.513 1223.881 C 1583.027 1226.622 1582.595 1229.373 1582.073 1232.105 L 1580.56 1240.315 C 1580.044 1243.05 1579.544 1245.789 1579.093 1248.534 C 1578.612 1251.274 1578.26 1254.037 1577.909 1256.799 C 1577.561 1259.563 1577.127 1262.307 1576.611 1265.042 C 1576.077 1267.777 1575.695 1270.526 1575.276 1273.274 C 1575.08 1274.649 1574.827 1276.023 1574.713 1277.394 C 1574.575 1278.763 1574.421 1280.135 1574.252 1281.506 L 1573.364 1281.294 C 1574.632 1278.682 1575.921 1276.075 1577.123 1273.427 C 1578.348 1270.791 1579.295 1268.031 1580.519 1265.397 L 1584.121 1257.458 C 1585.315 1254.81 1586.481 1252.149 1587.604 1249.471 C 1588.151 1248.125 1588.749 1246.802 1589.243 1245.438 C 1589.772 1244.086 1590.255 1242.719 1590.707 1241.343 C 1590.949 1240.659 1591.167 1239.971 1591.367 1239.285 C 1591.579 1238.597 1591.817 1237.914 1591.963 1237.234 C 1592.037 1236.906 1592.153 1236.531 1592.196 1236.239 L 1592.345 1235.159 C 1592.404 1234.446 1592.44 1233.789 1592.423 1233.073 C 1592.408 1231.657 1592.241 1230.233 1592.028 1228.815 C 1591.793 1227.399 1591.531 1225.982 1591.189 1224.578 C 1590.512 1221.777 1589.709 1218.985 1588.737 1216.261 C 1588.688 1216.133 1588.752 1215.987 1588.88 1215.938 C 1589.004 1215.891 1589.145 1215.955 1589.2 1216.073 C 1590.344 1218.766 1591.324 1221.521 1592.095 1224.346 C 1592.487 1225.758 1592.829 1227.187 1593.085 1228.638 C 1593.332 1230.089 1593.533 1231.555 1593.579 1233.047 C 1593.613 1233.782 1593.583 1234.583 1593.533 1235.315 L 1593.404 1236.399 C 1593.337 1236.823 1593.223 1237.143 1593.133 1237.521 C 1592.761 1238.985 1592.241 1240.343 1591.697 1241.703 L 1588.391 1249.797 C 1586.153 1255.173 1583.928 1260.547 1581.568 1265.865 C 1580.408 1268.534 1578.96 1271.07 1577.764 1273.722 L 1574.209 1281.69 L 1574.203 1281.703 C 1574.099 1281.938 1573.825 1282.042 1573.592 1281.938 C 1573.409 1281.857 1573.305 1281.67 1573.32 1281.479 C 1573.429 1280.081 1573.552 1278.682 1573.691 1277.285 C 1573.796 1275.878 1574.035 1274.51 1574.217 1273.127 L 1575.377 1264.846 C 1575.757 1262.086 1576.217 1259.339 1576.765 1256.607 C 1577.357 1253.883 1577.949 1251.162 1578.412 1248.417 L 1581.245 1231.955 C 1581.719 1229.214 1582.271 1226.485 1582.785 1223.747 C 1583.307 1221.013 1583.839 1218.282 1584.417 1215.558 C 1584.445 1215.422 1584.577 1215.337 1584.713 1215.365 C 1584.844 1215.394 1584.928 1215.518 1584.908 1215.649 Z " fill="rgb(67,64,64)"/></g><g><path d=" M 1572.793 1219.159 C 1572.793 1219.159 1572.889 1220.378 1572.967 1222.519 C 1573.042 1224.656 1573.203 1227.711 1573.23 1231.378 C 1573.249 1233.214 1573.237 1235.2 1573.299 1237.302 C 1573.321 1238.352 1573.355 1239.43 1573.433 1240.534 C 1573.522 1241.635 1573.659 1242.758 1573.733 1243.904 C 1573.915 1246.192 1573.773 1248.566 1573.819 1250.974 C 1573.843 1253.38 1573.921 1255.826 1573.877 1258.271 C 1573.861 1260.719 1573.807 1263.167 1574.126 1265.568 C 1574.323 1267.968 1574.213 1270.342 1574.254 1272.635 C 1574.251 1274.927 1574.298 1277.143 1574.329 1279.244 C 1574.383 1281.347 1574.643 1283.328 1574.657 1285.162 C 1574.709 1288.831 1574.701 1291.888 1574.667 1294.028 C 1574.611 1296.172 1574.579 1297.396 1574.579 1297.396 C 1574.575 1297.531 1574.461 1297.64 1574.323 1297.638 C 1574.194 1297.635 1574.091 1297.531 1574.081 1297.407 C 1574.081 1297.407 1573.993 1296.186 1573.841 1294.047 C 1573.709 1291.911 1573.561 1288.856 1573.446 1285.19 C 1573.375 1283.356 1573.545 1281.364 1573.502 1279.263 C 1573.438 1277.164 1573.383 1274.948 1573.277 1272.656 C 1573.213 1270.364 1572.993 1268 1573.081 1265.591 C 1573.291 1263.178 1573.125 1260.735 1572.997 1258.292 C 1572.842 1255.85 1572.807 1253.404 1572.721 1250.998 C 1572.657 1248.591 1572.406 1246.227 1572.485 1243.932 C 1572.506 1242.787 1572.593 1241.656 1572.63 1240.552 C 1572.657 1239.448 1572.643 1238.367 1572.615 1237.318 C 1572.583 1235.216 1572.479 1233.23 1572.414 1231.399 C 1572.274 1227.732 1572.297 1224.672 1572.273 1222.534 C 1572.254 1220.394 1572.294 1219.17 1572.294 1219.17 C 1572.298 1219.031 1572.414 1218.922 1572.551 1218.927 C 1572.681 1218.932 1572.783 1219.031 1572.793 1219.159 Z " fill="rgb(67,64,64)"/></g></g><g style="isolation:isolate"><g><path d=" M 1355.709 1272.302 C 1355.709 1272.302 1346.873 1262.612 1336.872 1271.278 C 1326.871 1279.95 1342.663 1293.289 1342.663 1293.289 C 1342.663 1293.289 1311.381 1350.909 1320.653 1362.844 C 1329.921 1374.778 1349.064 1360.62 1344.008 1353.729 C 1338.951 1346.83 1331.4 1372.726 1354.261 1372.226 C 1377.125 1371.726 1375.404 1350.04 1371.32 1350.518 C 1367.233 1350.993 1374.337 1371.274 1391.063 1362.102 C 1407.789 1352.928 1398.716 1339.084 1393.484 1340.972 C 1388.252 1342.868 1411.197 1362.185 1418.963 1345.485 C 1426.731 1328.776 1376.401 1284.381 1376.401 1284.381 C 1376.401 1284.381 1379.527 1260.092 1370.827 1259.654 C 1357.653 1258.996 1355.709 1272.302 1355.709 1272.302 Z " fill="rgb(255,255,255)"/></g><g><path d=" M 1342.22 1292.3 C 1342.22 1292.3 1342.746 1292.276 1343.664 1292.234 C 1344.583 1292.198 1345.892 1292.136 1347.468 1292.109 C 1348.254 1292.081 1349.112 1292.109 1350.01 1292.002 C 1350.459 1291.958 1350.923 1291.928 1351.388 1291.821 C 1351.851 1291.698 1352.319 1291.537 1352.798 1291.417 C 1353.756 1291.19 1354.78 1291.209 1355.802 1291.048 C 1356.823 1290.906 1357.838 1290.652 1358.884 1290.532 C 1359.912 1290.341 1360.971 1290.206 1361.879 1289.646 C 1362.806 1289.174 1363.84 1289.086 1364.746 1288.709 C 1365.662 1288.37 1366.588 1288.122 1367.375 1287.685 C 1368.17 1287.269 1368.859 1286.756 1369.528 1286.37 C 1370.208 1285.99 1370.831 1285.644 1371.383 1285.336 C 1371.936 1285.029 1372.383 1284.706 1372.772 1284.469 C 1373.551 1283.99 1374.02 1283.732 1374.02 1283.732 L 1374.044 1283.718 C 1374.164 1283.654 1374.316 1283.698 1374.383 1283.818 C 1374.436 1283.917 1374.416 1284.037 1374.342 1284.112 C 1374.342 1284.112 1373.968 1284.493 1373.271 1285.128 C 1372.91 1285.425 1372.506 1285.846 1371.97 1286.224 C 1371.42 1286.584 1370.802 1286.99 1370.126 1287.433 C 1369.446 1287.876 1368.542 1288.021 1367.723 1288.436 C 1366.908 1288.862 1365.998 1289.188 1365.091 1289.622 C 1364.636 1289.841 1364.163 1290.024 1363.679 1290.204 C 1363.196 1290.388 1362.703 1290.565 1362.179 1290.649 C 1361.103 1290.712 1360.098 1291.04 1359.087 1291.401 C 1358.063 1291.698 1357.02 1291.928 1355.992 1292.13 C 1354.958 1292.294 1353.968 1292.685 1352.956 1292.666 C 1351.946 1292.649 1350.971 1292.56 1350.067 1292.685 C 1349.159 1292.772 1348.3 1292.849 1347.506 1292.925 C 1344.324 1293.157 1342.195 1292.797 1342.195 1292.797 C 1342.058 1292.778 1341.964 1292.652 1341.984 1292.513 C 1342.002 1292.393 1342.106 1292.308 1342.22 1292.3 Z " fill="rgb(67,64,64)"/></g><g><path d=" M 1359.819 1286.873 C 1359.255 1286.875 1356.667 1290.763 1357.651 1291.381 C 1358.641 1292.006 1362.857 1286.851 1359.819 1286.873 Z " fill="rgb(67,64,64)"/></g><g><path d=" M 1362.427 1293.922 C 1361.934 1294.193 1357.766 1292.081 1358.322 1291.058 C 1358.877 1290.034 1365.081 1292.449 1362.427 1293.922 Z " fill="rgb(67,64,64)"/></g><g><path d=" M 1368.78 1284.425 C 1368.396 1284.526 1367.358 1287.651 1368.142 1287.883 C 1368.924 1288.122 1370.839 1283.851 1368.78 1284.425 Z " fill="rgb(67,64,64)"/></g><g><path d=" M 1371.183 1289.695 C 1370.835 1289.889 1367.906 1288.403 1368.295 1287.679 C 1368.686 1286.961 1373.05 1288.659 1371.183 1289.695 Z " fill="rgb(67,64,64)"/></g><g><path d=" M 1349.493 1288.966 C 1349.024 1288.958 1346.801 1292.154 1347.612 1292.688 C 1348.421 1293.218 1352.02 1289.005 1349.493 1288.966 Z " fill="rgb(67,64,64)"/></g><g><path d=" M 1350.461 1295.758 C 1350.003 1295.859 1347.171 1293.193 1347.855 1292.506 C 1348.537 1291.818 1352.931 1295.203 1350.461 1295.758 Z " fill="rgb(67,64,64)"/></g><path d=" M 1353.992 1270.901 C 1354.376 1269.002 1355.039 1267.19 1355.988 1265.508 C 1356.499 1264.604 1357.085 1263.732 1357.78 1262.953 C 1358.452 1262.152 1359.239 1261.442 1360.087 1260.828 C 1360.531 1260.549 1360.939 1260.206 1361.415 1259.982 L 1362.836 1259.294 C 1363.837 1258.977 1364.827 1258.612 1365.896 1258.51 C 1366.96 1258.281 1367.964 1258.354 1368.989 1258.316 C 1370.109 1258.305 1371.244 1258.704 1372.087 1259.437 C 1372.936 1260.161 1373.52 1261.101 1373.967 1262.06 C 1374.421 1263.024 1374.727 1264.032 1374.967 1265.044 C 1375.457 1267.076 1375.663 1269.138 1375.789 1271.196 C 1375.993 1275.32 1375.813 1279.425 1375.363 1283.526 L 1375.187 1283.057 C 1380.607 1287.896 1385.867 1292.89 1390.909 1298.114 C 1395.928 1303.354 1400.797 1308.75 1405.289 1314.464 C 1407.529 1317.322 1409.681 1320.258 1411.661 1323.31 C 1413.653 1326.352 1415.504 1329.513 1416.88 1332.914 C 1417.532 1334.625 1418.159 1336.368 1418.415 1338.21 C 1418.62 1339.12 1418.592 1340.065 1418.631 1340.997 C 1418.616 1341.472 1418.52 1341.956 1418.463 1342.434 C 1418.423 1342.669 1418.409 1342.922 1418.345 1343.144 L 1418.127 1343.786 C 1417.535 1345.584 1416.552 1347.19 1415.257 1348.573 C 1413.968 1349.948 1412.271 1350.977 1410.425 1351.428 C 1406.695 1352.349 1402.865 1351.328 1399.573 1349.745 C 1397.911 1348.932 1396.343 1347.942 1394.888 1346.797 C 1393.447 1345.638 1392.059 1344.385 1391.077 1342.669 C 1390.965 1342.442 1390.839 1342.232 1390.767 1341.966 L 1390.647 1341.581 L 1390.607 1341.133 C 1390.581 1340.992 1390.62 1340.822 1390.664 1340.653 C 1390.708 1340.486 1390.74 1340.325 1390.888 1340.158 C 1391.003 1340.01 1391.191 1339.802 1391.284 1339.761 L 1391.58 1339.594 C 1392.752 1339.109 1393.775 1339.328 1394.727 1339.701 C 1396.575 1340.541 1397.86 1342.122 1398.683 1343.838 C 1399.491 1345.576 1399.833 1347.529 1399.631 1349.432 C 1399.436 1351.338 1398.699 1353.146 1397.677 1354.716 C 1395.617 1357.882 1392.464 1360.089 1389.248 1361.765 C 1386.013 1363.453 1382.189 1364.428 1378.507 1363.609 C 1374.827 1362.794 1371.743 1360.177 1369.917 1356.966 C 1369.017 1355.346 1368.288 1353.594 1368.207 1351.649 C 1368.227 1351.156 1368.228 1350.653 1368.469 1350.138 C 1368.508 1350.01 1368.607 1349.888 1368.692 1349.765 C 1368.763 1349.644 1368.892 1349.526 1369.056 1349.422 C 1369.131 1349.373 1369.213 1349.32 1369.287 1349.284 L 1369.449 1349.237 L 1369.612 1349.188 C 1369.816 1349.149 1369.803 1349.177 1369.909 1349.172 C 1370.545 1349.18 1371.08 1349.578 1371.375 1349.985 C 1371.708 1350.39 1371.917 1350.841 1372.093 1351.292 C 1372.749 1353.114 1372.777 1355.026 1372.572 1356.874 C 1372.353 1358.729 1371.785 1360.534 1370.959 1362.208 C 1369.279 1365.565 1366.323 1368.204 1362.932 1369.716 C 1361.243 1370.5 1359.447 1371.018 1357.629 1371.338 C 1356.728 1371.534 1355.796 1371.601 1354.875 1371.718 C 1353.955 1371.761 1353.093 1371.854 1352.132 1371.833 C 1348.483 1371.833 1344.605 1371.221 1341.487 1368.977 C 1338.353 1366.776 1336.544 1362.964 1336.483 1359.198 C 1336.427 1357.31 1336.708 1355.398 1337.521 1353.62 C 1337.947 1352.75 1338.488 1351.849 1339.524 1351.281 C 1339.767 1351.122 1340.091 1351.073 1340.393 1351.01 C 1340.697 1351.016 1341.049 1351 1341.321 1351.128 C 1341.612 1351.229 1341.887 1351.36 1342.116 1351.562 C 1342.233 1351.656 1342.365 1351.756 1342.461 1351.846 L 1342.684 1352.101 C 1343.369 1352.885 1343.812 1353.885 1343.904 1354.925 C 1344.008 1355.964 1343.761 1356.966 1343.408 1357.874 C 1342.68 1359.704 1341.432 1361.198 1340.036 1362.448 C 1337.212 1364.92 1333.695 1366.589 1329.948 1366.992 C 1326.209 1367.442 1322.244 1366.112 1319.675 1363.284 L 1318.795 1362.248 C 1318.508 1361.818 1318.289 1361.414 1318.037 1360.992 C 1317.672 1360.117 1317.353 1359.216 1317.241 1358.292 C 1317.029 1357.373 1317.073 1356.445 1317 1355.526 C 1317.051 1354.609 1317.037 1353.688 1317.145 1352.778 C 1317.479 1349.133 1318.297 1345.573 1319.265 1342.073 C 1320.244 1338.57 1321.395 1335.125 1322.645 1331.718 C 1325.168 1324.914 1328.016 1318.237 1331.055 1311.653 C 1334.103 1305.073 1337.297 1298.568 1340.72 1292.166 L 1340.82 1292.693 C 1339.317 1291.37 1337.957 1289.94 1336.688 1288.412 C 1335.429 1286.882 1334.275 1285.25 1333.357 1283.474 C 1332.44 1281.708 1331.745 1279.768 1331.632 1277.729 C 1331.588 1276.713 1331.672 1275.68 1331.967 1274.696 C 1332.273 1273.718 1332.723 1272.784 1333.331 1271.966 C 1333.971 1271.128 1334.627 1270.428 1335.443 1269.808 C 1336.241 1269.206 1337.009 1268.562 1337.917 1268.117 C 1338.765 1267.573 1339.735 1267.268 1340.672 1266.906 L 1342.152 1266.589 C 1342.644 1266.477 1343.156 1266.502 1343.657 1266.456 C 1344.66 1266.429 1345.676 1266.526 1346.649 1266.762 C 1347.631 1266.972 1348.577 1267.325 1349.48 1267.75 C 1351.153 1268.537 1352.667 1269.612 1353.992 1270.901 Z  M 1353.959 1271.552 C 1352.603 1270.198 1350.987 1269.062 1349.239 1268.27 C 1348.364 1267.873 1347.453 1267.546 1346.517 1267.36 C 1345.585 1267.146 1344.624 1267.07 1343.677 1267.104 C 1343.204 1267.158 1342.721 1267.133 1342.257 1267.242 L 1340.863 1267.549 C 1339.976 1267.901 1339.061 1268.188 1338.253 1268.716 C 1337.391 1269.141 1336.655 1269.77 1335.889 1270.349 C 1335.492 1270.622 1335.187 1270.972 1334.816 1271.313 C 1334.484 1271.664 1334.195 1272.01 1333.913 1272.388 C 1333.353 1273.15 1332.951 1274.008 1332.673 1274.901 C 1332.409 1275.802 1332.339 1276.748 1332.384 1277.688 C 1332.497 1279.573 1333.159 1281.417 1334.053 1283.112 C 1334.945 1284.818 1336.077 1286.401 1337.317 1287.888 C 1338.56 1289.37 1339.923 1290.784 1341.368 1292.044 C 1341.523 1292.177 1341.559 1292.398 1341.468 1292.573 C 1338.064 1298.948 1334.828 1305.429 1331.772 1311.986 C 1328.713 1318.544 1325.853 1325.196 1323.333 1331.972 C 1322.081 1335.362 1320.932 1338.792 1319.955 1342.265 C 1318.988 1345.737 1318.172 1349.265 1317.84 1352.838 C 1317.729 1353.729 1317.776 1354.625 1317.737 1355.516 C 1317.825 1356.396 1317.799 1357.3 1318.016 1358.152 C 1318.137 1359.026 1318.449 1359.841 1318.788 1360.622 L 1319.447 1361.685 L 1320.344 1362.704 C 1322.74 1365.224 1326.379 1366.398 1329.828 1365.909 C 1333.292 1365.472 1336.592 1363.825 1339.161 1361.482 C 1340.413 1360.294 1341.573 1358.942 1342.183 1357.388 C 1342.487 1356.622 1342.683 1355.813 1342.603 1355.04 C 1342.539 1354.268 1342.211 1353.54 1341.713 1352.958 L 1341.491 1352.704 C 1341.421 1352.641 1341.363 1352.614 1341.301 1352.565 C 1341.192 1352.458 1341.055 1352.404 1340.916 1352.352 C 1340.647 1352.261 1340.385 1352.265 1340.1 1352.429 C 1339.523 1352.724 1339.019 1353.429 1338.665 1354.169 C 1337.949 1355.68 1337.652 1357.445 1337.689 1359.166 C 1337.721 1362.62 1339.292 1366.081 1342.135 1368.081 C 1344.957 1370.133 1348.609 1370.753 1352.131 1370.761 C 1352.981 1370.786 1353.927 1370.696 1354.815 1370.656 C 1355.689 1370.544 1356.568 1370.486 1357.439 1370.3 C 1359.187 1369.994 1360.901 1369.505 1362.503 1368.768 C 1365.716 1367.341 1368.475 1364.89 1370.061 1361.75 C 1370.851 1360.19 1371.407 1358.497 1371.629 1356.756 C 1371.845 1355.026 1371.821 1353.208 1371.257 1351.601 C 1370.997 1350.836 1370.461 1350.029 1369.895 1350.034 C 1369.976 1349.969 1369.409 1350.109 1369.483 1350.164 C 1369.427 1350.185 1369.303 1350.352 1369.24 1350.494 C 1369.079 1350.802 1369.059 1351.234 1369.04 1351.638 C 1369.083 1353.336 1369.756 1355.044 1370.604 1356.573 C 1372.324 1359.641 1375.227 1362.117 1378.668 1362.901 C 1382.121 1363.724 1385.769 1362.726 1388.867 1361.034 C 1392.001 1359.333 1394.945 1357.152 1396.801 1354.158 C 1398.684 1351.237 1399.127 1347.44 1397.644 1344.328 C 1396.925 1342.802 1395.748 1341.414 1394.272 1340.75 C 1393.904 1340.606 1393.525 1340.474 1393.148 1340.458 C 1392.957 1340.428 1392.775 1340.456 1392.589 1340.469 C 1392.495 1340.464 1392.411 1340.505 1392.321 1340.524 L 1392.188 1340.557 L 1392.123 1340.573 C 1392.279 1340.492 1392.123 1340.573 1392.139 1340.568 L 1391.841 1340.729 C 1391.728 1340.792 1391.824 1340.813 1391.783 1340.825 C 1391.757 1340.82 1391.751 1340.888 1391.741 1340.94 C 1391.727 1340.992 1391.695 1341.04 1391.717 1341.128 L 1391.732 1341.357 L 1391.817 1341.62 C 1391.853 1341.794 1391.964 1341.977 1392.051 1342.156 C 1392.855 1343.606 1394.181 1344.87 1395.547 1345.972 C 1396.929 1347.076 1398.435 1348.04 1400.021 1348.83 C 1403.173 1350.377 1406.8 1351.333 1410.191 1350.51 C 1413.595 1349.74 1416.179 1346.77 1417.289 1343.497 L 1417.509 1342.854 C 1417.572 1342.641 1417.571 1342.434 1417.605 1342.226 C 1417.649 1341.805 1417.739 1341.396 1417.753 1340.966 C 1417.715 1340.094 1417.752 1339.216 1417.555 1338.346 C 1417.321 1336.596 1416.716 1334.898 1416.087 1333.232 C 1413.363 1326.586 1409.024 1320.688 1404.539 1315.062 C 1399.997 1309.445 1395.107 1304.112 1390.056 1298.94 C 1384.996 1293.781 1379.844 1288.69 1374.479 1283.86 C 1374.344 1283.737 1374.284 1283.557 1374.303 1283.39 C 1374.779 1279.374 1374.991 1275.289 1374.823 1271.245 C 1374.716 1269.226 1374.529 1267.206 1374.075 1265.256 C 1373.853 1264.281 1373.568 1263.32 1373.157 1262.432 C 1372.752 1261.544 1372.231 1260.706 1371.524 1260.096 C 1370.827 1259.48 1369.924 1259.161 1369.003 1259.156 C 1367.988 1259.188 1366.935 1259.112 1365.989 1259.32 C 1365.011 1259.406 1364.068 1259.734 1363.116 1260.013 L 1361.768 1260.638 C 1361.315 1260.841 1360.927 1261.158 1360.501 1261.414 C 1359.689 1261.98 1358.932 1262.638 1358.277 1263.39 C 1357.601 1264.122 1357.024 1264.948 1356.516 1265.81 C 1355.497 1267.534 1354.769 1269.461 1354.387 1271.417 C 1354.363 1271.554 1354.232 1271.646 1354.093 1271.622 C 1354.043 1271.612 1353.993 1271.586 1353.959 1271.552 Z " fill="rgb(67,64,64)"/></g><path d=" M 1442.998 1355.457 C 1443.075 1353.134 1446.834 1348.074 1447.726 1348.095 L 1447.726 1348.095 L 1447.726 1348.095 L 1447.726 1348.095 L 1447.726 1348.095 L 1447.726 1348.095 C 1451.791 1348.204 1448.756 1353.029 1446.035 1355.315 C 1449.596 1355.123 1453.423 1354.844 1457.437 1354.433 C 1459.638 1354.198 1461.897 1353.933 1464.194 1353.586 C 1466.487 1353.198 1468.827 1352.8 1471.197 1352.348 C 1475.945 1351.501 1480.869 1350.725 1485.825 1349.67 C 1487.334 1349.341 1488.846 1348.99 1490.361 1348.633 C 1490.601 1348.344 1491.021 1348.265 1491.554 1348.345 C 1492.126 1348.207 1492.698 1348.069 1493.271 1347.93 C 1495.738 1347.238 1498.253 1346.676 1500.719 1345.941 C 1503.19 1345.225 1505.679 1344.558 1508.095 1343.693 C 1509.313 1343.293 1510.518 1342.862 1511.718 1342.43 C 1512.894 1341.936 1514.067 1341.444 1515.235 1340.952 C 1519.929 1339.058 1524.545 1337.182 1528.903 1335.118 C 1533.27 1333.076 1537.381 1330.868 1541.185 1328.618 C 1543.113 1327.534 1544.857 1326.269 1546.582 1325.11 C 1548.321 1323.969 1549.931 1322.774 1551.487 1321.638 C 1554.671 1319.466 1557.381 1317.198 1559.85 1315.274 C 1562.227 1313.24 1564.289 1311.449 1565.965 1309.949 C 1569.209 1306.826 1571.062 1305.04 1571.062 1305.04 L 1571.073 1305.029 C 1571.171 1304.936 1571.329 1304.938 1571.425 1305.037 C 1571.518 1305.133 1571.517 1305.285 1571.426 1305.381 C 1571.426 1305.381 1569.649 1307.258 1566.537 1310.545 C 1564.894 1312.1 1562.887 1313.985 1560.535 1316.086 C 1558.074 1318.061 1555.391 1320.412 1552.194 1322.624 C 1551.402 1323.185 1550.594 1323.761 1549.77 1324.348 C 1548.935 1324.914 1548.041 1325.428 1547.155 1325.985 C 1545.354 1327.053 1543.565 1328.269 1541.609 1329.329 C 1537.799 1331.621 1533.673 1333.848 1529.327 1335.998 C 1527.134 1337.032 1524.941 1338.168 1522.635 1339.124 C 1520.343 1340.11 1518.031 1341.133 1515.609 1341.93 C 1513.195 1342.738 1510.765 1343.55 1508.322 1344.368 C 1505.895 1345.225 1503.433 1346.006 1500.969 1346.788 C 1498.456 1347.59 1495.918 1348.304 1493.375 1348.951 C 1495.781 1350.042 1498.661 1352.327 1498.647 1352.998 L 1498.647 1352.998 L 1498.647 1352.998 C 1498.539 1357.931 1491.442 1352.453 1490.356 1349.726 C 1488.923 1350.075 1487.489 1350.413 1486.062 1350.742 C 1481.091 1351.818 1476.207 1352.988 1471.391 1353.581 C 1466.583 1354.214 1461.913 1354.584 1457.507 1355.116 C 1453.09 1355.534 1448.913 1355.952 1445.045 1356.157 C 1444.974 1356.161 1444.903 1356.166 1444.835 1356.169 C 1444.224 1356.516 1443.706 1356.63 1443.387 1356.415 C 1443.322 1356.371 1443.267 1356.32 1443.218 1356.263 C 1440.055 1356.439 1437.126 1356.552 1434.479 1356.558 C 1431.331 1356.584 1428.586 1356.545 1426.327 1356.485 C 1424.067 1356.43 1422.294 1356.326 1421.085 1356.24 C 1419.875 1356.146 1419.231 1356.097 1419.231 1356.097 C 1419.094 1356.086 1418.99 1355.966 1419.001 1355.829 C 1419.011 1355.696 1419.133 1355.594 1419.267 1355.6 C 1419.267 1355.6 1421.834 1355.736 1426.341 1355.793 C 1428.594 1355.816 1431.33 1355.816 1434.466 1355.74 C 1437.044 1355.663 1439.896 1355.607 1442.998 1355.457 L 1442.998 1355.457 L 1442.998 1355.457 L 1442.998 1355.457 L 1442.998 1355.457 L 1442.998 1355.457 Z  M 1537.774 1321.834 C 1536.716 1321.81 1531.623 1328.93 1533.434 1330.154 C 1535.244 1331.378 1543.462 1321.985 1537.774 1321.834 L 1537.774 1321.834 L 1537.774 1321.834 L 1537.774 1321.834 L 1537.774 1321.834 L 1537.774 1321.834 L 1537.774 1321.834 L 1537.774 1321.834 L 1537.774 1321.834 L 1537.774 1321.834 L 1537.774 1321.834 Z  M 1498.543 1337.579 C 1497.485 1337.551 1492.393 1344.678 1494.204 1345.899 C 1496.015 1347.12 1504.233 1337.732 1498.543 1337.579 L 1498.543 1337.579 L 1498.543 1337.579 L 1498.543 1337.579 L 1498.543 1337.579 L 1498.543 1337.579 L 1498.543 1337.579 L 1498.543 1337.579 L 1498.543 1337.579 L 1498.543 1337.579 Z  M 1455.989 1363.016 C 1456.011 1361.954 1448.863 1356.899 1447.649 1358.716 C 1446.436 1360.535 1455.867 1368.704 1455.989 1363.016 L 1455.989 1363.016 L 1455.989 1363.016 L 1455.989 1363.016 L 1455.989 1363.016 L 1455.989 1363.016 L 1455.989 1363.016 L 1455.989 1363.016 L 1455.989 1363.016 Z  M 1545.94 1333.553 C 1545.395 1332.649 1536.651 1332.186 1536.593 1334.365 C 1536.537 1336.553 1548.871 1338.433 1545.94 1333.553 L 1545.94 1333.553 L 1545.94 1333.553 L 1545.94 1333.553 L 1545.94 1333.553 L 1545.94 1333.553 L 1545.94 1333.553 Z  M 1468.954 1351.063 C 1469.155 1351.79 1468.727 1352.545 1467.999 1352.746 C 1467.27 1352.946 1466.516 1352.522 1466.315 1351.79 C 1466.115 1351.061 1466.542 1350.309 1467.271 1350.105 C 1468 1349.907 1468.754 1350.334 1468.954 1351.063 L 1468.954 1351.063 L 1468.954 1351.063 L 1468.954 1351.063 L 1468.954 1351.063 Z  M 1480.402 1357.733 C 1480.664 1358.689 1480.196 1359.647 1479.354 1359.878 C 1478.514 1360.11 1477.619 1359.527 1477.356 1358.571 C 1477.094 1357.621 1477.564 1356.659 1478.403 1356.43 C 1479.243 1356.197 1480.138 1356.779 1480.402 1357.733 L 1480.402 1357.733 L 1480.402 1357.733 L 1480.402 1357.733 Z  M 1510.403 1334.287 C 1510.588 1334.959 1510.103 1335.681 1509.317 1335.897 C 1508.533 1336.11 1507.748 1335.743 1507.563 1335.071 C 1507.375 1334.397 1507.861 1333.678 1508.648 1333.462 C 1509.431 1333.246 1510.219 1333.613 1510.403 1334.287 L 1510.403 1334.287 L 1510.403 1334.287 Z  M 1558.713 1324.181 C 1558.484 1323.602 1558.863 1322.915 1559.557 1322.637 C 1560.252 1322.363 1561 1322.605 1561.228 1323.178 C 1561.457 1323.754 1561.079 1324.443 1560.381 1324.717 C 1559.689 1324.993 1558.94 1324.754 1558.713 1324.181 L 1558.713 1324.181 Z  M 1554.975 1323.522 C 1554.766 1322.998 1555.006 1322.412 1555.507 1322.21 C 1556.011 1322.016 1556.586 1322.276 1556.792 1322.798 C 1557.002 1323.322 1556.762 1323.907 1556.258 1324.103 C 1555.758 1324.306 1555.182 1324.046 1554.975 1323.522 Z " fill-rule="evenodd" fill="rgb(255,255,255)"/><path d=" M 1477.483 1200.527 C 1480.115 1200.407 1482.717 1200.294 1485.282 1200.378 C 1488.159 1200.407 1490.991 1200.399 1493.751 1200.659 C 1496.513 1200.872 1499.227 1200.964 1501.838 1201.362 C 1504.449 1201.744 1507.005 1202.006 1509.435 1202.511 C 1511.866 1203.019 1514.217 1203.484 1516.478 1203.904 C 1518.734 1204.35 1520.865 1204.922 1522.91 1205.388 C 1524.949 1205.878 1526.895 1206.295 1528.675 1206.878 C 1530.47 1207.404 1532.15 1207.896 1533.703 1208.352 C 1535.262 1208.792 1536.687 1209.219 1537.943 1209.698 C 1543.023 1211.462 1545.927 1212.471 1545.927 1212.471 L 1545.941 1212.474 C 1546.066 1212.519 1546.205 1212.456 1546.254 1212.331 C 1546.305 1212.203 1546.241 1212.058 1546.113 1212.008 C 1546.113 1212.008 1543.241 1210.883 1538.215 1208.916 C 1536.965 1208.404 1535.545 1207.938 1533.99 1207.456 C 1532.439 1206.962 1530.762 1206.427 1528.969 1205.855 C 1527.186 1205.247 1525.233 1204.8 1523.187 1204.279 C 1521.134 1203.79 1518.999 1203.162 1516.726 1202.716 C 1514.447 1202.295 1512.069 1201.883 1509.605 1201.479 C 1508.378 1201.244 1507.107 1201.156 1505.829 1201.003 C 1504.549 1200.85 1503.25 1200.695 1501.933 1200.539 C 1499.31 1200.131 1496.583 1200.016 1493.809 1199.787 C 1491.034 1199.519 1488.19 1199.471 1485.295 1199.402 C 1482.401 1199.263 1479.459 1199.375 1476.479 1199.451 C 1473.497 1199.468 1470.493 1199.784 1467.47 1200.099 L 1465.202 1200.367 L 1462.939 1200.735 C 1461.426 1200.959 1459.91 1201.186 1458.385 1201.375 C 1455.35 1201.844 1452.311 1202.38 1449.271 1202.914 C 1443.225 1204.148 1437.223 1205.64 1431.439 1207.508 C 1425.627 1209.282 1419.975 1211.284 1414.67 1213.607 C 1412.05 1214.844 1409.458 1216.019 1406.997 1217.323 C 1404.498 1218.552 1402.073 1219.784 1399.731 1221.023 C 1397.367 1222.222 1395.146 1223.534 1392.949 1224.714 C 1390.805 1225.984 1388.699 1227.159 1386.749 1228.404 C 1378.85 1233.232 1372.693 1237.91 1368.501 1241.302 C 1366.395 1242.992 1364.805 1244.399 1363.733 1245.37 C 1362.658 1246.339 1362.106 1246.883 1362.106 1246.883 C 1362.011 1246.976 1362.005 1247.132 1362.095 1247.232 C 1362.189 1247.334 1362.347 1247.339 1362.449 1247.244 C 1362.449 1247.244 1364.707 1245.172 1368.935 1241.847 C 1371.033 1240.167 1373.662 1238.23 1376.706 1236.05 C 1379.797 1233.94 1383.242 1231.492 1387.166 1229.074 C 1391.07 1226.628 1395.361 1224.063 1400.05 1221.631 C 1404.677 1219.074 1409.833 1216.93 1415.158 1214.758 C 1420.523 1212.69 1425.993 1210.339 1431.771 1208.555 C 1437.503 1206.634 1443.478 1205.2 1449.45 1203.776 C 1452.461 1203.186 1455.467 1202.534 1458.493 1202.078 C 1461.526 1201.692 1464.545 1201.235 1467.57 1201.14 C 1469.886 1201.017 1472.178 1200.775 1474.459 1200.64 C 1471.722 1202.578 1468.589 1206.507 1472.323 1207.646 C 1474.174 1208.209 1477.483 1202.783 1477.483 1200.527 L 1477.483 1200.527 L 1477.483 1200.527 L 1477.483 1200.527 L 1477.483 1200.527 L 1477.483 1200.527 Z  M 1464.812 1191.602 C 1464.296 1193.787 1471.955 1197.407 1473.062 1195.99 C 1474.168 1194.575 1466.104 1186.104 1464.812 1191.602 L 1464.812 1191.602 L 1464.812 1191.602 L 1464.812 1191.602 L 1464.812 1191.602 L 1464.812 1191.602 Z  M 1398.388 1215.469 C 1398.842 1217.666 1407.313 1217.717 1407.721 1215.964 C 1408.129 1214.22 1397.241 1209.936 1398.388 1215.469 L 1398.388 1215.469 L 1398.388 1215.469 L 1398.388 1215.469 L 1398.388 1215.469 Z  M 1409.212 1227.031 C 1411.365 1226.393 1410.708 1217.946 1408.931 1217.687 C 1407.155 1217.427 1403.797 1228.633 1409.212 1227.031 L 1409.212 1227.031 L 1409.212 1227.031 L 1409.212 1227.031 Z  M 1430.172 1202.836 C 1429.759 1201.339 1428.215 1200.464 1426.72 1200.877 C 1425.224 1201.287 1424.347 1202.833 1424.76 1204.328 C 1425.171 1205.823 1426.716 1206.7 1428.211 1206.289 C 1429.707 1205.877 1430.583 1204.328 1430.172 1202.836 L 1430.172 1202.836 L 1430.172 1202.836 Z  M 1520.944 1197.32 C 1520.737 1196.571 1519.965 1196.13 1519.217 1196.336 C 1518.469 1196.544 1518.029 1197.315 1518.237 1198.066 C 1518.442 1198.815 1519.216 1199.252 1519.964 1199.044 C 1520.712 1198.839 1521.149 1198.068 1520.944 1197.32 L 1520.944 1197.32 Z  M 1456.817 1206.555 C 1456.611 1205.806 1455.839 1205.37 1455.092 1205.576 C 1454.345 1205.779 1453.905 1206.55 1454.112 1207.3 C 1454.317 1208.047 1455.091 1208.484 1455.837 1208.279 C 1456.584 1208.074 1457.021 1207.3 1456.817 1206.555 Z " fill-rule="evenodd" fill="rgb(255,255,255)"/></g></g></svg>