<?xml version="1.0" standalone="no"?><!-- Generator: Gravit.io --><svg xmlns="http://www.w3.org/2000/svg" xmlns:xlink="http://www.w3.org/1999/xlink" style="isolation:isolate" viewBox="0 0 666.667 666.667" width="666.667" height="666.667"><defs><clipPath id="_clipPath_HPjRciNlrgKfkZxTd343MtcPBrAUtbU9"><rect width="666.667" height="666.667"/></clipPath></defs><g clip-path="url(#_clipPath_HPjRciNlrgKfkZxTd343MtcPBrAUtbU9)"><g style="isolation:isolate"><g><clipPath id="_clipPath_djBi7fgPmxbndkCUHkOZlgZJbOuUJdAX"><path d=" M -208.667 54 L 458 54 L 458 720.667 L -208.667 720.667 L -208.667 54 Z " fill="rgb(255,255,255)"/></clipPath><g clip-path="url(#_clipPath_djBi7fgPmxbndkCUHkOZlgZJbOuUJdAX)"><g><g><path d=" M 270.051 269.321 C 270.051 269.321 293.329 269.435 312.394 252.754 C 331.457 236.071 335.29 207.219 337.346 201.915 C 339.402 196.615 346.915 195.038 350.478 192.446 C 354.039 189.855 351.341 187.59 352.53 187.698 C 353.717 187.807 354.579 189.695 354.039 191.315 C 353.499 192.933 349.993 194.443 350.099 194.443 C 350.209 194.443 356.954 193.851 357.439 187.753 C 357.926 181.654 350.749 180.253 348.427 182.894 C 346.106 185.539 349.559 189.479 349.182 189.966 C 348.806 190.451 346.159 189.531 345.351 186.943 C 344.541 184.351 347.671 179.874 352.205 180.414 C 356.738 180.951 359.327 184.137 359.327 187.698 C 359.327 191.263 356.09 194.443 353.447 195.091 C 350.801 195.739 350.37 195.525 348.211 195.794 C 346.053 196.062 344.271 197.303 344.271 197.303 C 344.271 197.303 347.941 196.062 350.262 196.602 C 352.583 197.142 356.309 197.142 357.763 195.471 C 359.221 193.795 359.706 192.718 359.814 193.313 C 359.923 193.906 360.677 195.739 359.005 197.358 C 357.331 198.978 354.687 198.978 354.687 198.978 C 354.687 198.978 350.531 198.059 348.967 198.006 C 347.401 197.951 346.375 198.494 346.375 198.494 C 346.375 198.494 353.447 200.058 354.201 205.077 C 354.957 210.094 349.614 213.17 345.782 211.554 C 341.951 209.933 343.893 205.511 344.703 205.183 C 345.511 204.859 345.082 206.207 347.022 208.043 C 348.967 209.878 351.719 207.719 351.611 205.345 C 351.503 202.971 349.398 201.299 349.398 201.299 C 349.398 201.299 350.262 202.755 349.993 204.698 C 349.722 206.642 348.751 207.182 348.751 207.182 C 348.751 207.182 348.911 205.13 348.05 204.698 C 347.186 204.267 345.459 203.351 344.811 202.215 C 344.163 201.082 341.733 201.189 340.71 201.838 C 339.685 202.485 338.766 203.403 338.011 205.345 C 337.255 207.29 337.041 208.638 337.041 208.638 C 337.041 208.638 337.689 205.723 340.223 204.483 C 342.761 203.239 343.083 203.998 342.867 204.215 C 342.653 204.429 341.034 205.723 340.007 208.91 C 338.982 212.094 338.173 212.685 337.255 213.711 C 336.337 214.734 334.934 216.354 334.934 216.354 C 334.934 216.354 340.602 212.901 344.919 213.979 C 349.238 215.062 351.179 218.838 350.37 219.002 C 349.559 219.161 347.563 218.838 347.563 218.838 C 347.563 218.838 351.99 224.881 347.022 228.282 C 342.059 231.683 336.877 228.715 337.634 227.958 C 338.389 227.202 343.083 227.741 345.243 224.127 C 347.401 220.51 344.758 215.709 340.763 215.709 C 336.77 215.709 334.179 220.458 334.179 220.458 C 334.179 220.458 337.417 218.406 339.738 218.891 C 342.059 219.378 342.761 221.483 342.327 223.05 C 341.895 224.613 340.007 225.098 339.901 224.613 C 339.791 224.127 338.982 221.213 335.313 222.454 C 331.643 223.698 329.538 234.218 329.538 234.218 C 329.538 234.218 331.265 232.598 333.477 232.005 C 335.69 231.41 336.607 232.329 336.499 232.438 C 336.391 232.546 334.342 232.977 331.535 235.029 C 328.727 237.081 323.115 243.826 323.171 243.769 C 323.225 243.715 330.025 237.511 336.607 235.029 C 343.191 232.546 345.999 233.194 349.722 230.386 C 353.447 227.581 351.665 224.073 351.881 223.318 C 352.098 222.561 353.878 223.91 354.363 225.69 C 354.85 227.473 353.067 229.526 353.067 229.526 C 353.067 229.526 355.605 228.715 355.659 226.558 C 355.713 224.397 354.633 223.643 355.605 221.698 C 356.577 219.755 357.439 219.487 357.493 218.623 C 357.547 217.758 357.439 217.058 357.439 217.058 C 357.439 217.058 359.923 219.27 359.221 221.969 C 358.519 224.666 357.71 225.69 357.818 226.285 C 357.926 226.878 361.379 225.206 362.405 222.669 C 363.431 220.135 361.487 218.35 361.109 217.866 C 360.731 217.381 360.083 215.978 360.299 215.602 C 360.515 215.222 362.945 216.301 363.483 218.57 C 364.023 220.834 363.322 222.506 363.322 222.506 C 363.322 222.506 365.751 220.025 364.239 216.466 C 362.729 212.901 359.005 212.094 357.331 213.117 C 355.659 214.143 356.835 215.685 357.642 215.573 C 358.449 215.467 358.609 215.038 358.609 215.038 C 356.983 219.277 351.934 214.805 355.065 211.067 C 356.738 209.07 359.814 209.07 361.109 209.826 C 362.405 210.578 363.053 211.874 363.053 211.822 C 363.053 211.766 362.946 210.401 363.518 209.495 C 364.09 208.589 365.753 208.057 365.753 208.726 C 365.753 209.39 365.593 210.026 365.379 210.199 C 365.166 210.373 364.705 211.573 364.597 212.218 C 364.49 212.859 364.515 213.238 364.515 213.238 C 365.095 214.427 365.409 215.297 365.593 216.569 C 365.593 216.569 366.397 215.146 367.122 214.851 C 367.846 214.554 368.627 214.393 368.599 214.797 C 368.573 215.199 368.277 216.114 367.929 216.246 C 367.579 216.382 367.15 216.435 366.477 216.862 C 365.806 217.294 365.751 217.561 365.751 217.59 C 365.751 217.617 366.827 217.347 367.902 217.938 C 368.974 218.527 369.243 220.167 369.109 220.247 C 368.974 220.329 367.013 219.577 365.859 220.866 C 364.705 222.155 362.674 226.391 357.547 229.631 C 352.419 232.869 347.887 233.246 347.887 233.246 C 347.887 233.246 352.853 233.517 355.821 232.169 C 358.79 230.821 359.761 229.253 359.761 229.253 C 359.761 229.253 360.918 230.937 359.79 232.763 C 358.663 234.589 356.943 234.911 356.943 234.911 C 356.943 234.911 359.549 236.415 360.865 238.67 C 362.179 240.929 362.395 242.861 364.061 243.611 C 365.726 244.366 367.31 243.694 367.31 243.773 C 367.31 243.855 367.15 245.358 365.295 245.787 C 363.442 246.221 362.126 245.089 362.126 245.089 C 362.126 245.089 363.094 246.727 362.395 248.553 C 361.697 250.382 361.054 251.938 361.054 251.938 C 361.054 251.938 359.79 251.05 359.467 250.249 C 359.146 249.441 359.146 249.171 359.146 249.171 C 359.146 249.171 358.743 250.943 356.218 252.018 C 353.694 253.093 352.485 254.785 352.485 254.785 C 351.278 253.771 352.365 250.414 353.285 249.491 C 353.285 249.491 352.163 249.791 351.626 250.191 C 351.09 250.595 350.955 251.293 350.955 251.293 C 350.955 251.293 349.962 249.682 350.874 247.747 C 351.786 245.815 354.794 244.93 355.546 243.477 C 356.249 242.122 356.003 240.733 354.715 239.959 C 354.715 239.959 354.929 241.653 354.365 242.27 C 353.802 242.886 352.673 243.477 352.403 243.182 C 352.135 242.886 352.834 240.954 351.759 238.646 C 350.686 236.334 348.485 236.577 348.457 236.605 C 348.43 236.63 350.041 237.813 350.122 239.154 C 350.202 240.497 349.263 242.242 348.726 242.11 C 348.187 241.974 348.269 237.839 345.099 236.818 C 341.931 235.797 339.835 236.925 339.835 236.925 C 339.835 236.925 344.59 237.114 346.039 239.369 C 347.49 241.626 346.362 244.418 346.039 244.499 C 345.718 244.579 346.417 243.023 344.697 242.162 C 342.978 241.305 341.931 241.222 340.83 240.929 C 339.729 240.631 339.138 240.285 339.138 240.285 C 339.138 240.285 339.191 240.874 339.89 241.275 C 340.587 241.679 341.609 241.842 341.661 242.187 C 341.715 242.539 340.159 243.317 338.895 242.727 C 337.187 241.927 336.598 240.777 334.438 240.686 C 334.438 240.686 336.398 241.787 336.989 242.994 C 337.582 244.205 336.694 246.162 336.023 246.083 C 335.353 246.002 335.645 242.886 332.157 242.187 C 328.663 241.491 325.978 243.102 325.978 243.102 C 325.978 243.102 328.101 242.594 329.658 242.969 C 331.215 243.343 332.129 244.473 332.022 244.526 C 331.914 244.579 328.423 243.587 324.986 244.631 C 321.546 245.679 320.205 247.295 320.205 247.295 C 320.205 247.295 319.694 248.338 321.306 247.885 C 322.917 247.426 323.749 246.221 326.113 246.594 C 328.477 246.97 329.443 247.747 331.109 247.695 C 332.773 247.639 333.417 246.566 333.417 246.566 C 333.417 246.566 333.633 247.639 332.881 248.634 C 332.129 249.63 331.295 249.737 331.27 249.737 C 331.241 249.737 335.421 252.73 335.421 255.485 C 335.421 258.234 333.633 260.639 333.606 262.735 C 333.579 264.827 335.217 265.018 335.217 265.018 C 335.217 265.018 332.182 265.305 331.158 262.497 C 330.131 259.694 330.65 256.827 330.623 255.723 C 330.597 254.623 329.711 254.035 329.711 254.035 C 329.711 254.035 330.725 259.205 327.271 261.853 C 323.818 264.493 320.633 265.141 320.633 264.333 C 320.633 263.525 321.281 263.037 321.281 263.037 C 321.281 263.037 318.529 264.225 316.746 263.309 C 314.967 262.39 313.131 258.826 314.211 256.293 C 315.29 253.753 317.774 253.433 317.774 253.433 C 317.774 253.433 318.205 254.403 317.505 254.835 C 316.802 255.266 315.399 255.266 314.751 257.209 C 314.103 259.153 315.237 260.502 315.237 260.502 C 315.237 260.502 314.858 257.642 316.854 256.507 C 318.854 255.374 320.255 256.13 321.713 255.59 C 323.171 255.05 323.386 253.918 323.386 253.918 C 323.386 253.918 324.574 256.453 322.846 257.91 C 321.118 259.367 319.285 257.586 317.505 258.234 C 315.722 258.885 315.83 261.043 316.854 261.853 C 317.882 262.661 319.609 262.551 320.687 262.337 C 321.766 262.121 322.522 261.795 322.469 261.795 C 322.414 261.795 320.633 261.905 320.094 261.097 C 319.554 260.286 319.175 259.801 319.554 259.585 C 319.933 259.367 321.498 259.529 321.985 259.962 C 322.469 260.393 324.249 261.205 326.462 259.907 C 328.674 258.613 328.782 254.835 327.325 252.406 C 325.869 249.977 323.277 250.083 323.277 250.083 C 323.277 250.083 324.125 250.407 324.259 251.643 C 324.394 252.879 323.479 253.307 323.479 253.307 C 323.479 253.307 323.225 249.87 319.122 251.217 C 315.021 252.567 312.917 254.618 310.702 256.399 C 308.49 258.181 306.979 258.826 306.979 258.826 C 306.979 258.826 309.006 258.838 310.322 259.863 C 311.637 260.882 311.986 261.662 311.797 261.795 C 311.61 261.929 309.81 262.385 309.086 262.145 C 308.361 261.902 307.823 260.959 306.238 260.801 C 304.655 260.639 302.614 261.447 302.614 261.447 C 302.614 261.447 305.739 261.474 308.706 263.415 C 311.675 265.358 310.866 269.191 310.866 269.191 C 310.866 269.191 309.625 266.811 307.95 266.654 C 306.278 266.493 305.415 267.193 303.903 267.681 C 302.393 268.163 298.451 266.978 298.451 266.978 C 298.451 266.978 299.963 268.489 299.802 269.405 C 299.639 270.325 299.587 270.809 298.451 270.001 C 297.319 269.191 297.103 269.085 295.863 269.085 C 294.621 269.085 292.622 268.081 292.622 268.081 C 292.622 268.081 292.73 269.262 294.746 270.954 C 296.759 272.645 297.481 275.233 296.941 277.555 C 296.402 279.875 292.139 280.793 292.139 280.793 C 292.139 280.793 293.434 279.443 293.218 277.231 C 293.002 275.019 289.979 273.506 289.926 273.506 C 289.871 273.506 290.25 274.425 289.331 275.503 C 288.415 276.583 287.982 276.529 287.982 276.154 C 287.982 275.775 287.841 273.343 285.022 271.705 C 282.202 270.066 279.41 270.71 279.41 270.71 C 279.41 270.71 279.974 271.893 281.801 272.001 C 283.626 272.107 285.533 273.317 285.747 274.821 C 285.963 276.323 286.955 276.622 286.77 276.889 C 286.579 277.157 285.883 277.103 285.213 276.889 C 284.539 276.674 284.137 276.19 284.137 276.19 C 284.137 276.19 287.254 283.709 280.329 286.307 C 273.405 288.906 272.863 290.851 272.863 292.903 C 272.863 294.962 275.894 295.363 276.65 293.907 C 277.403 292.451 276.11 291.963 276.057 291.427 C 276.002 290.885 276.433 289.102 276.758 289.161 C 277.081 289.213 279.241 291.373 278.322 293.851 C 277.403 296.338 273.77 296.519 272.83 295.095 C 271.891 293.673 272.211 292.223 272.211 292.223 C 272.211 292.223 271.541 293.511 272.103 294.907 C 272.669 296.305 273.018 297.109 272.75 297.969 C 272.481 298.827 271.569 299.742 271.246 299.583 C 270.923 299.422 269.581 296.173 270.443 292.503 C 271.306 288.834 274.491 287.107 276.542 286.461 C 278.591 285.813 282.855 283.654 282.531 280.199 C 282.209 276.745 280.049 274.695 280.049 274.695 C 280.049 274.695 282.747 281.062 278.917 283.491 C 275.083 285.919 272.655 285.705 272.655 285.111 C 272.655 284.517 273.411 282.251 274.167 281.815 C 274.922 281.386 278.053 279.985 278.378 277.338 C 278.701 274.695 276.831 272.618 276.025 272.001 C 275.221 271.382 273.745 271.247 273.745 271.247 C 273.745 271.247 277.081 274.157 276.218 277.231 C 275.354 280.307 271.97 281.158 270.681 280.65 C 269.393 280.137 268.881 278.419 268.881 278.419 C 268.881 278.419 269.742 279.439 270.762 279.331 C 271.783 279.226 272.75 279.011 273.206 277.937 C 273.663 276.859 272.938 275.759 272.938 275.759 C 272.938 275.759 272.83 276.915 272.454 277.075 C 272.078 277.238 271.253 277.231 271.253 274.75 C 271.253 272.265 271.11 270.389 270.051 269.321 Z " fill-rule="evenodd" fill="rgb(255,255,255)"/></g><g><path d=" M 273.727 141.284 C 300.722 143.58 322.745 162.405 329.513 185.093 C 330.355 187.349 331.482 189.449 333.074 190.897 L 333.071 190.895 C 333.071 190.895 336.109 192.981 338.478 192.529 C 340.849 192.075 341.755 189.981 341.479 188.411 C 341.201 186.844 339.359 186.337 339.203 186.816 C 339.047 187.3 337.95 190.201 334.403 188.913 C 330.853 187.629 329.783 177.095 329.783 177.095 C 329.783 177.095 331.351 178.735 333.506 179.353 C 335.661 179.977 336.67 179.075 336.573 178.961 C 336.474 178.853 334.465 178.395 331.861 176.311 C 329.255 174.227 324.303 167.421 324.354 167.473 C 324.397 167.524 329.587 172.796 335.331 175.651 C 336.941 176.228 339.458 177.009 342.299 177.437 C 345.079 177.853 347.519 178.095 349.406 178.296 C 351.09 178.339 353.969 178.553 355.873 179.481 C 358.71 180.868 359.527 182.441 359.527 182.441 C 359.527 182.441 360.853 180.777 359.902 178.936 C 358.955 177.1 357.267 176.757 357.267 176.757 C 357.267 176.757 360.022 175.289 361.561 173.055 C 363.097 170.817 363.503 168.889 365.243 168.164 C 366.981 167.433 368.502 168.125 368.51 168.043 C 368.518 167.963 368.502 166.459 366.693 166.005 C 364.881 165.553 363.454 166.66 363.454 166.66 C 363.454 166.66 364.581 165.039 364.063 163.207 C 363.542 161.373 363.054 159.813 363.054 159.813 C 363.054 159.813 361.703 160.68 361.302 161.479 C 360.899 162.28 360.873 162.548 360.873 162.548 C 360.873 162.548 360.646 160.775 358.225 159.668 C 355.806 158.563 354.763 156.857 354.763 156.857 C 353.455 157.852 354.211 161.221 355.042 162.153 C 355.042 162.153 353.95 161.84 353.451 161.431 C 352.954 161.023 352.887 160.324 352.887 160.324 C 352.887 160.324 351.735 161.92 352.458 163.861 C 353.182 165.805 356.105 166.727 356.713 168.185 C 357.283 169.547 356.899 170.935 355.534 171.688 C 355.534 171.688 355.915 170 355.413 169.379 C 354.907 168.753 353.838 168.147 353.539 168.44 C 353.242 168.731 353.751 170.673 352.449 172.964 C 351.147 175.256 348.967 174.985 348.942 174.957 C 348.921 174.928 350.647 173.771 350.861 172.431 C 351.071 171.092 350.305 169.336 349.754 169.463 C 349.203 169.592 348.877 173.724 345.606 174.7 C 342.335 175.68 340.35 174.525 340.35 174.525 C 340.35 174.525 345.125 174.399 346.798 172.168 C 348.47 169.931 347.618 167.129 347.302 167.045 C 346.987 166.96 347.533 168.521 345.73 169.36 C 343.925 170.193 342.87 170.261 341.741 170.541 C 340.609 170.824 339.983 171.164 339.983 171.164 C 339.983 171.164 340.095 170.573 340.833 170.181 C 341.571 169.791 342.609 169.641 342.695 169.295 C 342.785 168.945 341.303 168.147 339.982 168.72 C 338.193 169.497 337.493 170.64 335.321 170.701 C 335.321 170.701 337.391 169.627 338.101 168.427 C 338.811 167.229 338.117 165.261 337.437 165.332 C 336.759 165.407 336.747 168.52 333.186 169.171 C 329.625 169.823 327.094 168.18 327.094 168.18 C 327.094 168.18 329.169 168.717 330.762 168.361 C 332.359 168.007 333.383 166.893 333.281 166.839 C 333.179 166.78 329.587 167.728 326.253 166.639 C 322.917 165.545 321.733 163.92 321.733 163.92 C 321.733 163.92 321.326 162.869 322.891 163.347 C 324.459 163.821 325.173 165.039 327.574 164.695 C 329.974 164.349 331.019 163.585 332.679 163.66 C 334.342 163.736 334.879 164.815 334.879 164.815 C 334.879 164.815 335.199 163.748 334.543 162.744 C 333.89 161.745 333.069 161.625 333.041 161.625 C 333.015 161.625 337.49 158.691 337.761 155.943 C 338.031 153.195 336.478 150.769 336.658 148.679 C 336.837 146.584 338.495 146.419 338.495 146.419 C 338.495 146.419 335.489 146.093 334.186 148.884 C 332.883 151.669 333.122 154.539 332.985 155.637 C 332.85 156.739 331.906 157.313 331.906 157.313 C 331.906 157.313 333.43 152.164 330.234 149.48 C 327.039 146.795 323.918 146.107 323.837 146.915 C 323.758 147.723 324.359 148.216 324.359 148.216 C 324.359 148.216 321.722 146.997 319.851 147.887 C 317.978 148.781 315.793 152.313 316.622 154.86 C 317.453 157.407 319.905 157.761 319.905 157.761 C 319.905 157.761 320.433 156.796 319.771 156.359 C 319.113 155.919 317.709 155.899 317.253 153.951 C 316.795 152.004 318.063 150.671 318.063 150.671 C 318.063 150.671 317.403 153.523 319.289 154.677 C 321.175 155.836 322.653 155.1 324.058 155.657 C 325.462 156.213 325.566 157.349 325.566 157.349 C 325.566 157.349 327.005 154.832 325.421 153.356 C 323.837 151.877 321.825 153.632 320.107 152.961 C 318.389 152.292 318.709 150.14 319.815 149.347 C 320.921 148.551 322.637 148.681 323.695 148.908 C 324.754 149.139 325.478 149.469 325.425 149.469 C 325.37 149.469 323.601 149.34 322.979 150.14 C 322.361 150.943 321.935 151.421 322.293 151.641 C 322.647 151.864 324.23 151.723 324.757 151.297 C 325.286 150.873 327.149 150.087 329.233 151.409 C 331.319 152.731 331.057 156.503 329.358 158.909 C 327.662 161.316 325.081 161.173 325.081 161.173 C 325.081 161.173 325.961 160.861 326.218 159.632 C 326.474 158.397 325.601 157.959 325.601 157.959 C 325.601 157.959 325.007 161.385 321.035 159.988 C 317.066 158.587 315.162 156.512 313.123 154.707 C 311.085 152.899 309.638 152.235 309.638 152.235 C 309.638 152.235 311.665 152.247 313.083 151.243 C 314.498 150.244 314.925 149.469 314.75 149.333 C 314.574 149.2 312.821 148.72 312.071 148.952 C 311.322 149.184 310.693 150.116 309.091 150.256 C 307.49 150.396 305.527 149.564 305.527 149.564 C 305.527 149.564 308.655 149.577 311.817 147.679 C 314.978 145.776 314.545 141.94 314.545 141.94 C 314.545 141.94 313.069 144.295 311.379 144.435 C 309.691 144.575 308.897 143.865 307.431 143.359 C 305.969 142.855 301.91 143.987 301.91 143.987 C 301.91 143.987 303.57 142.499 303.498 141.581 C 303.426 140.665 303.419 140.179 302.206 140.972 C 300.993 141.765 300.766 141.869 299.525 141.853 C 298.285 141.837 296.187 142.811 296.187 142.811 C 296.187 142.811 296.41 141.635 298.59 139.971 C 300.773 138.308 301.75 135.732 301.439 133.409 C 301.127 131.085 296.951 130.112 296.951 130.112 C 296.951 130.112 298.115 131.477 297.682 133.684 C 297.247 135.889 294.077 137.359 294.022 137.359 C 293.967 137.359 294.437 136.447 293.625 135.356 C 292.811 134.268 292.375 134.317 292.338 134.693 C 292.301 135.071 291.921 137.497 288.939 139.095 C 285.957 140.693 283.227 140.015 283.227 140.015 C 283.227 140.015 283.907 138.843 285.745 138.759 C 287.582 138.676 289.61 137.493 289.974 135.997 C 290.335 134.497 291.358 134.213 291.195 133.943 C 291.034 133.673 290.331 133.717 289.638 133.92 C 288.945 134.129 288.494 134.605 288.494 134.605 C 288.494 134.605 292.353 127.139 285.681 124.457 C 279.01 121.775 278.661 119.824 278.863 117.772 C 279.065 115.72 282.135 115.356 282.749 116.823 C 283.361 118.284 282.017 118.755 281.909 119.293 C 281.802 119.829 282.058 121.612 282.387 121.563 C 282.718 121.513 285.09 119.387 284.417 116.896 C 283.742 114.408 280.126 114.175 279.045 115.585 C 277.965 116.995 278.145 118.445 278.145 118.445 C 278.145 118.445 277.599 117.151 278.299 115.763 C 279.002 114.376 279.43 113.576 279.246 112.712 C 279.063 111.853 278.241 110.929 277.901 111.087 C 277.562 111.243 275.899 114.467 276.401 118.14 C 276.905 121.817 279.919 123.58 281.907 124.255 C 283.895 124.927 287.949 127.139 287.285 130.583 C 286.619 134.028 284.259 136.045 284.259 136.045 C 284.259 136.045 287.586 129.724 283.991 127.251 C 280.395 124.775 277.946 124.959 277.887 125.549 C 277.83 126.144 278.362 128.416 279.075 128.86 C 279.789 129.297 282.782 130.739 282.845 133.384 C 282.909 136.031 280.835 138.077 279.967 138.684 C 279.102 139.289 277.61 139.404 277.61 139.404 C 277.61 139.404 281.237 136.545 280.675 133.463 C 280.114 130.381 276.813 129.488 275.474 129.983 C 274.133 130.473 273.454 132.183 273.454 132.183 C 273.454 132.183 274.414 131.175 275.423 131.296 C 276.434 131.416 277.381 131.644 277.733 132.724 C 278.082 133.801 277.25 134.891 277.25 134.891 C 277.25 134.891 277.254 133.735 276.895 133.569 C 276.535 133.407 275.709 133.4 275.465 135.881 C 275.219 138.357 274.893 140.229 273.727 141.284 Z " fill-rule="evenodd" fill="rgb(255,255,255)"/></g><g><path d=" M 262.867 141.284 C 235.873 143.58 213.851 162.405 207.085 185.093 C 206.239 187.349 205.114 189.449 203.521 190.897 L 203.522 190.895 C 203.522 190.895 200.486 192.981 198.117 192.529 C 195.747 192.075 194.841 189.981 195.117 188.411 C 195.395 186.844 197.237 186.337 197.393 186.816 C 197.549 187.3 198.643 190.201 202.194 188.913 C 205.743 187.629 206.813 177.095 206.813 177.095 C 206.813 177.095 205.243 178.735 203.09 179.353 C 200.935 179.977 199.926 179.075 200.023 178.961 C 200.119 178.853 202.131 178.395 204.735 176.311 C 207.341 174.227 212.291 167.421 212.243 167.473 C 212.198 167.524 207.007 172.796 201.265 175.651 C 199.655 176.228 197.138 177.009 194.295 177.437 C 191.515 177.853 189.077 178.095 187.189 178.296 C 185.505 178.339 182.626 178.553 180.723 179.481 C 177.886 180.868 177.067 182.441 177.067 182.441 C 177.067 182.441 175.743 180.777 176.693 178.936 C 177.642 177.1 179.329 176.757 179.329 176.757 C 179.329 176.757 176.574 175.289 175.035 173.055 C 173.498 170.817 173.093 168.889 171.353 168.164 C 169.614 167.433 168.094 168.125 168.085 168.043 C 168.078 167.963 168.09 166.459 169.902 166.005 C 171.715 165.553 173.141 166.66 173.141 166.66 C 173.141 166.66 172.014 165.039 172.533 163.207 C 173.05 161.373 173.543 159.813 173.543 159.813 C 173.543 159.813 174.891 160.68 175.294 161.479 C 175.695 162.28 175.722 162.548 175.722 162.548 C 175.722 162.548 175.95 160.775 178.37 159.668 C 180.791 158.563 181.833 156.857 181.833 156.857 C 183.141 157.852 182.385 161.221 181.554 162.153 C 181.554 162.153 182.646 161.84 183.145 161.431 C 183.643 161.023 183.707 160.324 183.707 160.324 C 183.707 160.324 184.861 161.92 184.135 163.861 C 183.415 165.805 180.491 166.727 179.882 168.185 C 179.314 169.547 179.698 170.935 181.063 171.688 C 181.063 171.688 180.679 170 181.182 169.379 C 181.687 168.753 182.757 168.147 183.055 168.44 C 183.353 168.731 182.845 170.673 184.146 172.964 C 185.449 175.256 187.627 174.985 187.654 174.957 C 187.675 174.928 185.947 173.771 185.735 172.431 C 185.523 171.092 186.291 169.336 186.843 169.463 C 187.391 169.592 187.717 173.724 190.99 174.7 C 194.261 175.68 196.246 174.525 196.246 174.525 C 196.246 174.525 191.471 174.399 189.798 172.168 C 188.123 169.931 188.978 167.129 189.293 167.045 C 189.607 166.96 189.062 168.521 190.867 169.36 C 192.671 170.193 193.726 170.261 194.857 170.541 C 195.987 170.824 196.614 171.164 196.614 171.164 C 196.614 171.164 196.501 170.573 195.763 170.181 C 195.025 169.791 193.987 169.641 193.899 169.295 C 193.811 168.945 195.293 168.147 196.614 168.72 C 198.403 169.497 199.103 170.64 201.275 170.701 C 201.275 170.701 199.203 169.627 198.494 168.427 C 197.785 167.229 198.478 165.261 199.157 165.332 C 199.837 165.407 199.85 168.52 203.411 169.171 C 206.973 169.823 209.498 168.18 209.498 168.18 C 209.498 168.18 207.427 168.717 205.831 168.361 C 204.237 168.007 203.213 166.893 203.315 166.839 C 203.417 166.78 207.007 167.728 210.343 166.639 C 213.679 165.545 214.863 163.92 214.863 163.92 C 214.863 163.92 215.27 162.869 213.706 163.347 C 212.137 163.821 211.422 165.039 209.022 164.695 C 206.619 164.349 205.577 163.585 203.915 163.66 C 202.257 163.736 201.717 164.815 201.717 164.815 C 201.717 164.815 201.397 163.748 202.05 162.744 C 202.706 161.745 203.527 161.625 203.554 161.625 C 203.581 161.625 199.106 158.691 198.835 155.943 C 198.565 153.195 200.117 150.769 199.937 148.679 C 199.759 146.584 198.102 146.419 198.102 146.419 C 198.102 146.419 201.107 146.093 202.409 148.884 C 203.711 151.669 203.474 154.539 203.609 155.637 C 203.745 156.739 204.689 157.313 204.689 157.313 C 204.689 157.313 203.166 152.164 206.361 149.48 C 209.557 146.795 212.677 146.107 212.757 146.915 C 212.835 147.723 212.237 148.216 212.237 148.216 C 212.237 148.216 214.873 146.997 216.745 147.887 C 218.618 148.781 220.801 152.313 219.973 154.86 C 219.143 157.407 216.691 157.761 216.691 157.761 C 216.691 157.761 216.163 156.796 216.823 156.359 C 217.483 155.919 218.886 155.899 219.343 153.951 C 219.799 152.004 218.533 150.671 218.533 150.671 C 218.533 150.671 219.193 153.523 217.307 154.677 C 215.421 155.836 213.943 155.1 212.537 155.657 C 211.133 156.213 211.03 157.349 211.03 157.349 C 211.03 157.349 209.591 154.832 211.175 153.356 C 212.759 151.877 214.771 153.632 216.489 152.961 C 218.207 152.292 217.886 150.14 216.782 149.347 C 215.677 148.551 213.958 148.681 212.901 148.908 C 211.841 149.139 211.117 149.469 211.17 149.469 C 211.225 149.469 212.997 149.34 213.617 150.14 C 214.235 150.943 214.661 151.421 214.303 151.641 C 213.947 151.864 212.365 151.723 211.838 151.297 C 211.309 150.873 209.449 150.087 207.362 151.409 C 205.275 152.731 205.539 156.503 207.235 158.909 C 208.933 161.316 211.514 161.173 211.514 161.173 C 211.514 161.173 210.634 160.861 210.379 159.632 C 210.122 158.397 210.993 157.959 210.993 157.959 C 210.993 157.959 211.589 161.385 215.559 159.988 C 219.53 158.587 221.434 156.512 223.473 154.707 C 225.51 152.899 226.958 152.235 226.958 152.235 C 226.958 152.235 224.93 152.247 223.513 151.243 C 222.097 150.244 221.671 149.469 221.846 149.333 C 222.019 149.2 223.775 148.72 224.525 148.952 C 225.273 149.184 225.903 150.116 227.503 150.256 C 229.106 150.396 231.069 149.564 231.069 149.564 C 231.069 149.564 227.941 149.577 224.779 147.679 C 221.618 145.776 222.051 141.94 222.051 141.94 C 222.051 141.94 223.526 144.295 225.215 144.435 C 226.905 144.575 227.701 143.865 229.165 143.359 C 230.627 142.855 234.686 143.987 234.686 143.987 C 234.686 143.987 233.025 142.499 233.098 141.581 C 233.169 140.665 233.174 140.179 234.389 140.972 C 235.602 141.765 235.829 141.869 237.07 141.853 C 238.311 141.837 240.409 142.811 240.409 142.811 C 240.409 142.811 240.186 141.635 238.006 139.971 C 235.823 138.308 234.846 135.732 235.155 133.409 C 235.469 131.085 239.643 130.112 239.643 130.112 C 239.643 130.112 238.481 131.477 238.914 133.684 C 239.349 135.889 242.518 137.359 242.573 137.359 C 242.626 137.359 242.159 136.447 242.97 135.356 C 243.783 134.268 244.219 134.317 244.257 134.693 C 244.295 135.071 244.675 137.497 247.657 139.095 C 250.637 140.693 253.369 140.015 253.369 140.015 C 253.369 140.015 252.689 138.843 250.851 138.759 C 249.013 138.676 246.987 137.493 246.623 135.997 C 246.261 134.497 245.237 134.213 245.401 133.943 C 245.562 133.673 246.265 133.717 246.957 133.92 C 247.651 134.129 248.101 134.605 248.101 134.605 C 248.101 134.605 244.243 127.139 250.914 124.457 C 257.586 121.775 257.935 119.824 257.731 117.772 C 257.53 115.72 254.458 115.356 253.846 116.823 C 253.235 118.284 254.577 118.755 254.685 119.293 C 254.793 119.829 254.537 121.612 254.207 121.563 C 253.877 121.513 251.506 119.387 252.178 116.896 C 252.853 114.408 256.471 114.175 257.551 115.585 C 258.63 116.995 258.453 118.445 258.453 118.445 C 258.453 118.445 258.997 117.151 258.294 115.763 C 257.593 114.376 257.166 113.576 257.35 112.712 C 257.533 111.853 258.357 110.929 258.694 111.087 C 259.034 111.243 260.695 114.467 260.194 118.14 C 259.691 121.817 256.675 123.58 254.687 124.255 C 252.699 124.927 248.649 127.139 249.311 130.583 C 249.975 134.028 252.337 136.045 252.337 136.045 C 252.337 136.045 249.01 129.724 252.605 127.251 C 256.198 124.775 258.65 124.959 258.709 125.549 C 258.766 126.144 258.234 128.416 257.519 128.86 C 256.807 129.297 253.813 130.739 253.75 133.384 C 253.686 136.031 255.761 138.077 256.626 138.684 C 257.494 139.289 258.983 139.404 258.983 139.404 C 258.983 139.404 255.361 136.545 255.921 133.463 C 256.483 130.381 259.782 129.488 261.122 129.983 C 262.463 130.473 263.142 132.183 263.142 132.183 C 263.142 132.183 262.181 131.175 261.171 131.296 C 260.162 131.416 259.215 131.644 258.863 132.724 C 258.514 133.801 259.346 134.891 259.346 134.891 C 259.346 134.891 259.341 133.735 259.699 133.569 C 260.061 133.407 260.889 133.4 261.133 135.881 C 261.377 138.357 261.702 140.229 262.867 141.284 Z " fill-rule="evenodd" fill="rgb(255,255,255)"/></g><g><path d=" M 266.563 269.321 C 266.563 269.321 243.285 269.435 224.221 252.754 C 205.156 236.071 201.323 207.219 199.267 201.915 C 197.212 196.615 189.697 195.038 186.136 192.446 C 182.573 189.855 185.272 187.59 184.085 187.698 C 182.897 187.807 182.035 189.695 182.573 191.315 C 183.115 192.933 186.623 194.443 186.513 194.443 C 186.405 194.443 179.66 193.851 179.173 187.753 C 178.688 181.654 185.865 180.253 188.187 182.894 C 190.507 185.539 187.053 189.479 187.431 189.966 C 187.809 190.451 190.453 189.531 191.264 186.943 C 192.073 184.351 188.941 179.874 184.408 180.414 C 179.875 180.951 177.285 184.137 177.285 187.698 C 177.285 191.263 180.524 194.443 183.168 195.091 C 185.812 195.739 186.243 195.525 188.403 195.794 C 190.561 196.062 192.343 197.303 192.343 197.303 C 192.343 197.303 188.673 196.062 186.352 196.602 C 184.031 197.142 180.307 197.142 178.849 195.471 C 177.393 193.795 176.907 192.718 176.8 193.313 C 176.691 193.906 175.936 195.739 177.609 197.358 C 179.281 198.978 181.927 198.978 181.927 198.978 C 181.927 198.978 186.083 198.059 187.647 198.006 C 189.212 197.951 190.239 198.494 190.239 198.494 C 190.239 198.494 183.168 200.058 182.412 205.077 C 181.657 210.094 186.999 213.17 190.832 211.554 C 194.664 209.933 192.719 205.511 191.911 205.183 C 191.101 204.859 191.532 206.207 189.589 208.043 C 187.647 209.878 184.895 207.719 185.001 205.345 C 185.111 202.971 187.216 201.299 187.216 201.299 C 187.216 201.299 186.352 202.755 186.623 204.698 C 186.891 206.642 187.863 207.182 187.863 207.182 C 187.863 207.182 187.7 205.13 188.565 204.698 C 189.427 204.267 191.155 203.351 191.803 202.215 C 192.448 201.082 194.879 201.189 195.904 201.838 C 196.929 202.485 197.847 203.403 198.603 205.345 C 199.359 207.29 199.575 208.638 199.575 208.638 C 199.575 208.638 198.927 205.723 196.389 204.483 C 193.853 203.239 193.529 203.998 193.745 204.215 C 193.961 204.429 195.581 205.723 196.605 208.91 C 197.632 212.094 198.44 212.685 199.359 213.711 C 200.275 214.734 201.679 216.354 201.679 216.354 C 201.679 216.354 196.013 212.901 191.696 213.979 C 187.377 215.062 185.435 218.838 186.243 219.002 C 187.053 219.161 189.049 218.838 189.049 218.838 C 189.049 218.838 184.625 224.881 189.589 228.282 C 194.555 231.683 199.736 228.715 198.98 227.958 C 198.225 227.202 193.529 227.741 191.371 224.127 C 189.212 220.51 191.857 215.709 195.849 215.709 C 199.845 215.709 202.435 220.458 202.435 220.458 C 202.435 220.458 199.195 218.406 196.876 218.891 C 194.555 219.378 193.853 221.483 194.285 223.05 C 194.717 224.613 196.605 225.098 196.713 224.613 C 196.821 224.127 197.632 221.213 201.301 222.454 C 204.971 223.698 207.073 234.218 207.073 234.218 C 207.073 234.218 205.349 232.598 203.135 232.005 C 200.923 231.41 200.005 232.329 200.113 232.438 C 200.223 232.546 202.273 232.977 205.079 235.029 C 207.885 237.081 213.497 243.826 213.444 243.769 C 213.391 243.715 206.589 237.511 200.005 235.029 C 193.421 232.546 190.616 233.194 186.891 230.386 C 183.168 227.581 184.949 224.073 184.733 223.318 C 184.517 222.561 182.735 223.91 182.251 225.69 C 181.764 227.473 183.547 229.526 183.547 229.526 C 183.547 229.526 181.009 228.715 180.955 226.558 C 180.901 224.397 181.98 223.643 181.009 221.698 C 180.037 219.755 179.173 219.487 179.12 218.623 C 179.067 217.758 179.173 217.058 179.173 217.058 C 179.173 217.058 176.691 219.27 177.393 221.969 C 178.095 224.666 178.904 225.69 178.796 226.285 C 178.688 226.878 175.233 225.206 174.208 222.669 C 173.183 220.135 175.125 218.35 175.504 217.866 C 175.881 217.381 176.529 215.978 176.315 215.602 C 176.099 215.222 173.669 216.301 173.129 218.57 C 172.589 220.834 173.291 222.506 173.291 222.506 C 173.291 222.506 170.864 220.025 172.375 216.466 C 173.887 212.901 177.609 212.094 179.281 213.117 C 180.955 214.143 179.777 215.685 178.972 215.573 C 178.165 215.467 178.005 215.038 178.005 215.038 C 179.631 219.277 184.68 214.805 181.548 211.067 C 179.875 209.07 176.8 209.07 175.504 209.826 C 174.208 210.578 173.561 211.874 173.561 211.822 C 173.561 211.766 173.668 210.401 173.095 209.495 C 172.524 208.589 170.861 208.057 170.861 208.726 C 170.861 209.39 171.02 210.026 171.233 210.199 C 171.448 210.373 171.908 211.573 172.017 212.218 C 172.125 212.859 172.096 213.238 172.096 213.238 C 171.519 214.427 171.204 215.297 171.023 216.569 C 171.023 216.569 170.217 215.146 169.492 214.851 C 168.767 214.554 167.987 214.393 168.015 214.797 C 168.041 215.199 168.336 216.114 168.687 216.246 C 169.035 216.382 169.465 216.435 170.136 216.862 C 170.807 217.294 170.861 217.561 170.861 217.59 C 170.861 217.617 169.787 217.347 168.712 217.938 C 167.639 218.527 167.369 220.167 167.504 220.247 C 167.639 220.329 169.6 219.577 170.753 220.866 C 171.908 222.155 173.937 226.391 179.067 229.631 C 184.193 232.869 188.727 233.246 188.727 233.246 C 188.727 233.246 183.761 233.517 180.793 232.169 C 177.825 230.821 176.853 229.253 176.853 229.253 C 176.853 229.253 175.696 230.937 176.823 232.763 C 177.951 234.589 179.669 234.911 179.669 234.911 C 179.669 234.911 177.064 236.415 175.749 238.67 C 174.433 240.929 174.219 242.861 172.552 243.611 C 170.888 244.366 169.304 243.694 169.304 243.773 C 169.304 243.855 169.465 245.358 171.319 245.787 C 173.171 246.221 174.487 245.089 174.487 245.089 C 174.487 245.089 173.52 246.727 174.219 248.553 C 174.917 250.382 175.561 251.938 175.561 251.938 C 175.561 251.938 176.823 251.05 177.145 250.249 C 177.467 249.441 177.467 249.171 177.467 249.171 C 177.467 249.171 177.871 250.943 180.396 252.018 C 182.92 253.093 184.128 254.785 184.128 254.785 C 185.336 253.771 184.252 250.414 183.329 249.491 C 183.329 249.491 184.451 249.791 184.988 250.191 C 185.525 250.595 185.66 251.293 185.66 251.293 C 185.66 251.293 186.652 249.682 185.74 247.747 C 184.827 245.815 181.819 244.93 181.067 243.477 C 180.364 242.122 180.611 240.733 181.899 239.959 C 181.899 239.959 181.684 241.653 182.249 242.27 C 182.811 242.886 183.94 243.477 184.209 243.182 C 184.476 242.886 183.78 240.954 184.852 238.646 C 185.928 236.334 188.129 236.577 188.156 236.605 C 188.183 236.63 186.572 237.813 186.492 239.154 C 186.411 240.497 187.351 242.242 187.888 242.11 C 188.425 241.974 188.347 237.839 191.513 236.818 C 194.683 235.797 196.777 236.925 196.777 236.925 C 196.777 236.925 192.025 237.114 190.573 239.369 C 189.123 241.626 190.252 244.418 190.573 244.499 C 190.896 244.579 190.199 243.023 191.917 242.162 C 193.636 241.305 194.683 241.222 195.784 240.929 C 196.884 240.631 197.475 240.285 197.475 240.285 C 197.475 240.285 197.421 240.874 196.724 241.275 C 196.025 241.679 195.007 241.842 194.951 242.187 C 194.897 242.539 196.455 243.317 197.717 242.727 C 199.427 241.927 200.015 240.777 202.175 240.686 C 202.175 240.686 200.215 241.787 199.625 242.994 C 199.033 244.205 199.92 246.162 200.592 246.083 C 201.263 246.002 200.967 242.886 204.459 242.187 C 207.949 241.491 210.636 243.102 210.636 243.102 C 210.636 243.102 208.515 242.594 206.956 242.969 C 205.397 243.343 204.484 244.473 204.592 244.526 C 204.7 244.579 208.192 243.587 211.628 244.631 C 215.068 245.679 216.408 247.295 216.408 247.295 C 216.408 247.295 216.92 248.338 215.309 247.885 C 213.696 247.426 212.864 246.221 210.5 246.594 C 208.139 246.97 207.171 247.747 205.505 247.695 C 203.84 247.639 203.197 246.566 203.197 246.566 C 203.197 246.566 202.981 247.639 203.732 248.634 C 204.484 249.63 205.317 249.737 205.345 249.737 C 205.371 249.737 201.193 252.73 201.193 255.485 C 201.193 258.234 202.981 260.639 203.008 262.735 C 203.035 264.827 201.397 265.018 201.397 265.018 C 201.397 265.018 204.431 265.305 205.456 262.497 C 206.483 259.694 205.963 256.827 205.989 255.723 C 206.016 254.623 206.903 254.035 206.903 254.035 C 206.903 254.035 205.888 259.205 209.343 261.853 C 212.796 264.493 215.981 265.141 215.981 264.333 C 215.981 263.525 215.333 263.037 215.333 263.037 C 215.333 263.037 218.084 264.225 219.865 263.309 C 221.648 262.39 223.483 258.826 222.401 256.293 C 221.323 253.753 218.841 253.433 218.841 253.433 C 218.841 253.433 218.411 254.403 219.109 254.835 C 219.812 255.266 221.213 255.266 221.863 257.209 C 222.511 259.153 221.379 260.502 221.379 260.502 C 221.379 260.502 221.755 257.642 219.759 256.507 C 217.761 255.374 216.359 256.13 214.901 255.59 C 213.444 255.05 213.228 253.918 213.228 253.918 C 213.228 253.918 212.041 256.453 213.768 257.91 C 215.495 259.367 217.331 257.586 219.109 258.234 C 220.892 258.885 220.784 261.043 219.759 261.853 C 218.732 262.661 217.007 262.551 215.927 262.337 C 214.847 262.121 214.091 261.795 214.144 261.795 C 214.199 261.795 215.981 261.905 216.52 261.097 C 217.06 260.286 217.439 259.801 217.06 259.585 C 216.68 259.367 215.116 259.529 214.631 259.962 C 214.144 260.393 212.364 261.205 210.151 259.907 C 207.939 258.613 207.832 254.835 209.288 252.406 C 210.745 249.977 213.335 250.083 213.335 250.083 C 213.335 250.083 212.488 250.407 212.353 251.643 C 212.22 252.879 213.133 253.307 213.133 253.307 C 213.133 253.307 213.391 249.87 217.492 251.217 C 221.593 252.567 223.697 254.618 225.911 256.399 C 228.123 258.181 229.635 258.826 229.635 258.826 C 229.635 258.826 227.607 258.838 226.292 259.863 C 224.977 260.882 224.627 261.662 224.815 261.795 C 225.003 261.929 226.803 262.385 227.528 262.145 C 228.252 261.902 228.791 260.959 230.375 260.801 C 231.959 260.639 234 261.447 234 261.447 C 234 261.447 230.876 261.474 227.908 263.415 C 224.941 265.358 225.748 269.191 225.748 269.191 C 225.748 269.191 226.989 266.811 228.661 266.654 C 230.336 266.493 231.199 267.193 232.709 267.681 C 234.221 268.163 238.161 266.978 238.161 266.978 C 238.161 266.978 236.649 268.489 236.811 269.405 C 236.973 270.325 237.028 270.809 238.161 270.001 C 239.293 269.191 239.511 269.085 240.751 269.085 C 241.992 269.085 243.992 268.081 243.992 268.081 C 243.992 268.081 243.883 269.262 241.869 270.954 C 239.856 272.645 239.133 275.233 239.672 277.555 C 240.212 279.875 244.475 280.793 244.475 280.793 C 244.475 280.793 243.179 279.443 243.396 277.231 C 243.611 275.019 246.636 273.506 246.689 273.506 C 246.741 273.506 246.364 274.425 247.283 275.503 C 248.199 276.583 248.631 276.529 248.631 276.154 C 248.631 275.775 248.771 273.343 251.592 271.705 C 254.411 270.066 257.204 270.71 257.204 270.71 C 257.204 270.71 256.639 271.893 254.813 272.001 C 252.988 272.107 251.079 273.317 250.865 274.821 C 250.652 276.323 249.659 276.622 249.845 276.889 C 250.033 277.157 250.731 277.103 251.403 276.889 C 252.075 276.674 252.477 276.19 252.477 276.19 C 252.477 276.19 249.36 283.709 256.284 286.307 C 263.208 288.906 263.749 290.851 263.749 292.903 C 263.749 294.962 260.719 295.363 259.964 293.907 C 259.209 292.451 260.503 291.963 260.556 291.427 C 260.611 290.885 260.18 289.102 259.857 289.161 C 259.533 289.213 257.373 291.373 258.292 293.851 C 259.209 296.338 262.844 296.519 263.784 295.095 C 264.723 293.673 264.4 292.223 264.4 292.223 C 264.4 292.223 265.073 293.511 264.508 294.907 C 263.945 296.305 263.595 297.109 263.863 297.969 C 264.133 298.827 265.047 299.742 265.368 299.583 C 265.689 299.422 267.035 296.173 266.171 292.503 C 265.307 288.834 262.124 287.107 260.073 286.461 C 258.021 285.813 253.759 283.654 254.081 280.199 C 254.405 276.745 256.564 274.695 256.564 274.695 C 256.564 274.695 253.865 281.062 257.697 283.491 C 261.528 285.919 263.957 285.705 263.957 285.111 C 263.957 284.517 263.203 282.251 262.447 281.815 C 261.692 281.386 258.56 279.985 258.237 277.338 C 257.913 274.695 259.781 272.618 260.588 272.001 C 261.393 271.382 262.869 271.247 262.869 271.247 C 262.869 271.247 259.533 274.157 260.396 277.231 C 261.26 280.307 264.643 281.158 265.933 280.65 C 267.221 280.137 267.731 278.419 267.731 278.419 C 267.731 278.419 266.872 279.439 265.852 279.331 C 264.832 279.226 263.863 279.011 263.408 277.937 C 262.952 276.859 263.676 275.759 263.676 275.759 C 263.676 275.759 263.784 276.915 264.16 277.075 C 264.535 277.238 265.361 277.231 265.361 274.75 C 265.361 272.265 265.501 270.389 266.563 269.321" fill-rule="evenodd" fill="rgb(255,255,255)"/></g><g><path d=" M 225.092 161.084 C 236.39 149.783 252.005 142.79 269.244 142.79 C 286.484 142.79 302.094 149.783 313.396 161.084 C 324.698 172.384 331.688 187.998 331.688 205.236 C 331.688 222.474 324.698 238.086 313.396 249.387 C 302.094 260.69 286.484 267.68 269.244 267.68 C 252.005 267.68 236.39 260.69 225.092 249.387 C 213.79 238.086 206.8 222.474 206.8 205.236 C 206.8 187.998 213.79 172.384 225.092 161.084 Z  M 269.244 145.35 C 252.71 145.35 237.738 152.055 226.9 162.892 C 216.061 173.73 209.358 188.702 209.358 205.236 C 209.358 221.768 216.061 236.744 226.9 247.58 C 237.738 258.418 252.71 265.122 269.244 265.122 C 285.777 265.122 300.75 258.418 311.588 247.58 C 322.425 236.744 329.13 221.768 329.13 205.236 C 329.13 188.702 322.425 173.73 311.588 162.892 C 300.75 152.055 285.777 145.35 269.244 145.35 Z " fill-rule="evenodd" fill="rgb(233,145,145)"/></g></g></g></g></g></g></svg>